<?xml version="1.0" encoding="utf-8" standalone="no"?>
<!DOCTYPE svg PUBLIC "-//W3C//DTD SVG 1.1//EN"
  "http://www.w3.org/Graphics/SVG/1.1/DTD/svg11.dtd">
<svg xmlns:xlink="http://www.w3.org/1999/xlink" width="1160.39952pt" height="728.39952pt" viewBox="0 0 1160.39952 728.39952" xmlns="http://www.w3.org/2000/svg" version="1.1">
 <metadata>
  <rdf:RDF xmlns:dc="http://purl.org/dc/elements/1.1/" xmlns:cc="http://creativecommons.org/ns#" xmlns:rdf="http://www.w3.org/1999/02/22-rdf-syntax-ns#">
   <cc:Work>
    <dc:type rdf:resource="http://purl.org/dc/dcmitype/StillImage"/>
    <dc:date>2025-07-24T15:54:09.688142</dc:date>
    <dc:format>image/svg+xml</dc:format>
    <dc:creator>
     <cc:Agent>
      <dc:title>Matplotlib v3.10.3, https://matplotlib.org/</dc:title>
     </cc:Agent>
    </dc:creator>
   </cc:Work>
  </rdf:RDF>
 </metadata>
 <defs>
  <style type="text/css">*{stroke-linejoin: round; stroke-linecap: butt}</style>
 </defs>
 <g id="figure_1">
  <g id="patch_1">
   <path d="M 0 728.39952 
L 1160.39952 728.39952 
L 1160.39952 0 
L 0 0 
L 0 728.39952 
z
" style="fill: none"/>
  </g>
  <g id="axes_1">
   <g id="patch_2">
    <path d="M 114.637455 453.649795 
L 329.512365 453.649795 
Q 343.837359 453.649795 343.837359 441.205621 
L 343.837359 316.763889 
Q 343.837359 304.319715 329.512365 304.319715 
L 114.637455 304.319715 
Q 100.312461 304.319715 100.312461 316.763889 
L 100.312461 441.205621 
Q 100.312461 453.649795 114.637455 453.649795 
z
" clip-path="url(#pd5238f36ab)" style="fill: #1e3a8a; opacity: 0.85; stroke: #00bfff; stroke-width: 2.5; stroke-linejoin: miter"/>
   </g>
   <g id="patch_3">
    <path d="M 472.762305 453.649795 
L 687.637215 453.649795 
Q 701.962209 453.649795 701.962209 441.205621 
L 701.962209 316.763889 
Q 701.962209 304.319715 687.637215 304.319715 
L 472.762305 304.319715 
Q 458.437311 304.319715 458.437311 316.763889 
L 458.437311 441.205621 
Q 458.437311 453.649795 472.762305 453.649795 
z
" clip-path="url(#pd5238f36ab)" style="fill: #14532d; opacity: 0.85; stroke: #32cd32; stroke-width: 2.5; stroke-linejoin: miter"/>
   </g>
   <g id="patch_4">
    <path d="M 830.887155 453.649795 
L 1045.762065 453.649795 
Q 1060.087059 453.649795 1060.087059 441.205621 
L 1060.087059 316.763889 
Q 1060.087059 304.319715 1045.762065 304.319715 
L 830.887155 304.319715 
Q 816.562161 304.319715 816.562161 316.763889 
L 816.562161 441.205621 
Q 816.562161 453.649795 830.887155 453.649795 
z
" clip-path="url(#pd5238f36ab)" style="fill: #78350f; opacity: 0.85; stroke: #ff8c00; stroke-width: 2.5; stroke-linejoin: miter"/>
   </g>
   <g id="patch_5">
    <path d="M 472.762305 640.312394 
L 687.637215 640.312394 
Q 701.962209 640.312394 701.962209 627.86822 
L 701.962209 534.536921 
Q 701.962209 522.092748 687.637215 522.092748 
L 472.762305 522.092748 
Q 458.437311 522.092748 458.437311 534.536921 
L 458.437311 627.86822 
Q 458.437311 640.312394 472.762305 640.312394 
z
" clip-path="url(#pd5238f36ab)" style="fill: #5b21b6; opacity: 0.85; stroke: #ba55d3; stroke-width: 2.5; stroke-linejoin: miter"/>
   </g>
   <g id="patch_6">
    <path d="M 472.762305 235.876762 
L 687.637215 235.876762 
Q 701.962209 235.876762 701.962209 223.432589 
L 701.962209 130.10129 
Q 701.962209 117.657116 687.637215 117.657116 
L 472.762305 117.657116 
Q 458.437311 117.657116 458.437311 130.10129 
L 458.437311 223.432589 
Q 458.437311 235.876762 472.762305 235.876762 
z
" clip-path="url(#pd5238f36ab)" style="fill: #7f1d1d; opacity: 0.85; stroke: #ff4500; stroke-width: 2.5; stroke-linejoin: miter"/>
   </g>
   <g id="text_1">
    <!-- Data Management -->
    <g style="fill: #ffffff" transform="translate(144.323347 374.399677) scale(0.15 -0.15)">
     <defs>
      <path id="DejaVuSans-Bold-44" d="M 1791 3756 
L 1791 909 
L 2222 909 
Q 2959 909 3348 1275 
Q 3738 1641 3738 2338 
Q 3738 3031 3350 3393 
Q 2963 3756 2222 3756 
L 1791 3756 
z
M 588 4666 
L 1856 4666 
Q 2919 4666 3439 4514 
Q 3959 4363 4331 4000 
Q 4659 3684 4818 3271 
Q 4978 2859 4978 2338 
Q 4978 1809 4818 1395 
Q 4659 981 4331 666 
Q 3956 303 3431 151 
Q 2906 0 1856 0 
L 588 0 
L 588 4666 
z
" transform="scale(0.015625)"/>
      <path id="DejaVuSans-Bold-61" d="M 2106 1575 
Q 1756 1575 1579 1456 
Q 1403 1338 1403 1106 
Q 1403 894 1545 773 
Q 1688 653 1941 653 
Q 2256 653 2472 879 
Q 2688 1106 2688 1447 
L 2688 1575 
L 2106 1575 
z
M 3816 1997 
L 3816 0 
L 2688 0 
L 2688 519 
Q 2463 200 2181 54 
Q 1900 -91 1497 -91 
Q 953 -91 614 226 
Q 275 544 275 1050 
Q 275 1666 698 1953 
Q 1122 2241 2028 2241 
L 2688 2241 
L 2688 2328 
Q 2688 2594 2478 2717 
Q 2269 2841 1825 2841 
Q 1466 2841 1156 2769 
Q 847 2697 581 2553 
L 581 3406 
Q 941 3494 1303 3539 
Q 1666 3584 2028 3584 
Q 2975 3584 3395 3211 
Q 3816 2838 3816 1997 
z
" transform="scale(0.015625)"/>
      <path id="DejaVuSans-Bold-74" d="M 1759 4494 
L 1759 3500 
L 2913 3500 
L 2913 2700 
L 1759 2700 
L 1759 1216 
Q 1759 972 1856 886 
Q 1953 800 2241 800 
L 2816 800 
L 2816 0 
L 1856 0 
Q 1194 0 917 276 
Q 641 553 641 1216 
L 641 2700 
L 84 2700 
L 84 3500 
L 641 3500 
L 641 4494 
L 1759 4494 
z
" transform="scale(0.015625)"/>
      <path id="DejaVuSans-Bold-20" transform="scale(0.015625)"/>
      <path id="DejaVuSans-Bold-4d" d="M 588 4666 
L 2119 4666 
L 3181 2169 
L 4250 4666 
L 5778 4666 
L 5778 0 
L 4641 0 
L 4641 3413 
L 3566 897 
L 2803 897 
L 1728 3413 
L 1728 0 
L 588 0 
L 588 4666 
z
" transform="scale(0.015625)"/>
      <path id="DejaVuSans-Bold-6e" d="M 4056 2131 
L 4056 0 
L 2931 0 
L 2931 347 
L 2931 1631 
Q 2931 2084 2911 2256 
Q 2891 2428 2841 2509 
Q 2775 2619 2662 2680 
Q 2550 2741 2406 2741 
Q 2056 2741 1856 2470 
Q 1656 2200 1656 1722 
L 1656 0 
L 538 0 
L 538 3500 
L 1656 3500 
L 1656 2988 
Q 1909 3294 2193 3439 
Q 2478 3584 2822 3584 
Q 3428 3584 3742 3212 
Q 4056 2841 4056 2131 
z
" transform="scale(0.015625)"/>
      <path id="DejaVuSans-Bold-67" d="M 2919 594 
Q 2688 288 2409 144 
Q 2131 0 1766 0 
Q 1125 0 706 504 
Q 288 1009 288 1791 
Q 288 2575 706 3076 
Q 1125 3578 1766 3578 
Q 2131 3578 2409 3434 
Q 2688 3291 2919 2981 
L 2919 3500 
L 4044 3500 
L 4044 353 
Q 4044 -491 3511 -936 
Q 2978 -1381 1966 -1381 
Q 1638 -1381 1331 -1331 
Q 1025 -1281 716 -1178 
L 716 -306 
Q 1009 -475 1290 -558 
Q 1572 -641 1856 -641 
Q 2406 -641 2662 -400 
Q 2919 -159 2919 353 
L 2919 594 
z
M 2181 2772 
Q 1834 2772 1640 2515 
Q 1447 2259 1447 1791 
Q 1447 1309 1634 1061 
Q 1822 813 2181 813 
Q 2531 813 2725 1069 
Q 2919 1325 2919 1791 
Q 2919 2259 2725 2515 
Q 2531 2772 2181 2772 
z
" transform="scale(0.015625)"/>
      <path id="DejaVuSans-Bold-65" d="M 4031 1759 
L 4031 1441 
L 1416 1441 
Q 1456 1047 1700 850 
Q 1944 653 2381 653 
Q 2734 653 3104 758 
Q 3475 863 3866 1075 
L 3866 213 
Q 3469 63 3072 -14 
Q 2675 -91 2278 -91 
Q 1328 -91 801 392 
Q 275 875 275 1747 
Q 275 2603 792 3093 
Q 1309 3584 2216 3584 
Q 3041 3584 3536 3087 
Q 4031 2591 4031 1759 
z
M 2881 2131 
Q 2881 2450 2695 2645 
Q 2509 2841 2209 2841 
Q 1884 2841 1681 2658 
Q 1478 2475 1428 2131 
L 2881 2131 
z
" transform="scale(0.015625)"/>
      <path id="DejaVuSans-Bold-6d" d="M 3781 2919 
Q 3994 3244 4286 3414 
Q 4578 3584 4928 3584 
Q 5531 3584 5847 3212 
Q 6163 2841 6163 2131 
L 6163 0 
L 5038 0 
L 5038 1825 
Q 5041 1866 5042 1909 
Q 5044 1953 5044 2034 
Q 5044 2406 4934 2573 
Q 4825 2741 4581 2741 
Q 4263 2741 4089 2478 
Q 3916 2216 3909 1719 
L 3909 0 
L 2784 0 
L 2784 1825 
Q 2784 2406 2684 2573 
Q 2584 2741 2328 2741 
Q 2006 2741 1831 2477 
Q 1656 2213 1656 1722 
L 1656 0 
L 531 0 
L 531 3500 
L 1656 3500 
L 1656 2988 
Q 1863 3284 2130 3434 
Q 2397 3584 2719 3584 
Q 3081 3584 3359 3409 
Q 3638 3234 3781 2919 
z
" transform="scale(0.015625)"/>
     </defs>
     <use xlink:href="#DejaVuSans-Bold-44"/>
     <use xlink:href="#DejaVuSans-Bold-61" transform="translate(83.007812 0)"/>
     <use xlink:href="#DejaVuSans-Bold-74" transform="translate(150.488281 0)"/>
     <use xlink:href="#DejaVuSans-Bold-61" transform="translate(198.291016 0)"/>
     <use xlink:href="#DejaVuSans-Bold-20" transform="translate(265.771484 0)"/>
     <use xlink:href="#DejaVuSans-Bold-4d" transform="translate(300.585938 0)"/>
     <use xlink:href="#DejaVuSans-Bold-61" transform="translate(400.097656 0)"/>
     <use xlink:href="#DejaVuSans-Bold-6e" transform="translate(467.578125 0)"/>
     <use xlink:href="#DejaVuSans-Bold-61" transform="translate(538.769531 0)"/>
     <use xlink:href="#DejaVuSans-Bold-67" transform="translate(606.25 0)"/>
     <use xlink:href="#DejaVuSans-Bold-65" transform="translate(677.832031 0)"/>
     <use xlink:href="#DejaVuSans-Bold-6d" transform="translate(745.654297 0)"/>
     <use xlink:href="#DejaVuSans-Bold-65" transform="translate(849.853516 0)"/>
     <use xlink:href="#DejaVuSans-Bold-6e" transform="translate(917.675781 0)"/>
     <use xlink:href="#DejaVuSans-Bold-74" transform="translate(988.867188 0)"/>
    </g>
    <!-- (data_utils.py) -->
    <g style="fill: #ffffff" transform="translate(160.757722 391.313583) scale(0.15 -0.15)">
     <defs>
      <path id="DejaVuSans-Bold-28" d="M 2413 -844 
L 1484 -844 
Q 1006 -72 778 623 
Q 550 1319 550 2003 
Q 550 2688 779 3389 
Q 1009 4091 1484 4856 
L 2413 4856 
Q 2013 4116 1813 3408 
Q 1613 2700 1613 2009 
Q 1613 1319 1811 609 
Q 2009 -100 2413 -844 
z
" transform="scale(0.015625)"/>
      <path id="DejaVuSans-Bold-64" d="M 2919 2988 
L 2919 4863 
L 4044 4863 
L 4044 0 
L 2919 0 
L 2919 506 
Q 2688 197 2409 53 
Q 2131 -91 1766 -91 
Q 1119 -91 703 423 
Q 288 938 288 1747 
Q 288 2556 703 3070 
Q 1119 3584 1766 3584 
Q 2128 3584 2408 3439 
Q 2688 3294 2919 2988 
z
M 2181 722 
Q 2541 722 2730 984 
Q 2919 1247 2919 1747 
Q 2919 2247 2730 2509 
Q 2541 2772 2181 2772 
Q 1825 2772 1636 2509 
Q 1447 2247 1447 1747 
Q 1447 1247 1636 984 
Q 1825 722 2181 722 
z
" transform="scale(0.015625)"/>
      <path id="DejaVuSans-Bold-5f" d="M 3200 -916 
L 3200 -1509 
L 0 -1509 
L 0 -916 
L 3200 -916 
z
" transform="scale(0.015625)"/>
      <path id="DejaVuSans-Bold-75" d="M 500 1363 
L 500 3500 
L 1625 3500 
L 1625 3150 
Q 1625 2866 1622 2436 
Q 1619 2006 1619 1863 
Q 1619 1441 1641 1255 
Q 1663 1069 1716 984 
Q 1784 875 1895 815 
Q 2006 756 2150 756 
Q 2500 756 2700 1025 
Q 2900 1294 2900 1772 
L 2900 3500 
L 4019 3500 
L 4019 0 
L 2900 0 
L 2900 506 
Q 2647 200 2364 54 
Q 2081 -91 1741 -91 
Q 1134 -91 817 281 
Q 500 653 500 1363 
z
" transform="scale(0.015625)"/>
      <path id="DejaVuSans-Bold-69" d="M 538 3500 
L 1656 3500 
L 1656 0 
L 538 0 
L 538 3500 
z
M 538 4863 
L 1656 4863 
L 1656 3950 
L 538 3950 
L 538 4863 
z
" transform="scale(0.015625)"/>
      <path id="DejaVuSans-Bold-6c" d="M 538 4863 
L 1656 4863 
L 1656 0 
L 538 0 
L 538 4863 
z
" transform="scale(0.015625)"/>
      <path id="DejaVuSans-Bold-73" d="M 3272 3391 
L 3272 2541 
Q 2913 2691 2578 2766 
Q 2244 2841 1947 2841 
Q 1628 2841 1473 2761 
Q 1319 2681 1319 2516 
Q 1319 2381 1436 2309 
Q 1553 2238 1856 2203 
L 2053 2175 
Q 2913 2066 3209 1816 
Q 3506 1566 3506 1031 
Q 3506 472 3093 190 
Q 2681 -91 1863 -91 
Q 1516 -91 1145 -36 
Q 775 19 384 128 
L 384 978 
Q 719 816 1070 734 
Q 1422 653 1784 653 
Q 2113 653 2278 743 
Q 2444 834 2444 1013 
Q 2444 1163 2330 1236 
Q 2216 1309 1875 1350 
L 1678 1375 
Q 931 1469 631 1722 
Q 331 1975 331 2491 
Q 331 3047 712 3315 
Q 1094 3584 1881 3584 
Q 2191 3584 2531 3537 
Q 2872 3491 3272 3391 
z
" transform="scale(0.015625)"/>
      <path id="DejaVuSans-Bold-2e" d="M 653 1209 
L 1778 1209 
L 1778 0 
L 653 0 
L 653 1209 
z
" transform="scale(0.015625)"/>
      <path id="DejaVuSans-Bold-70" d="M 1656 506 
L 1656 -1331 
L 538 -1331 
L 538 3500 
L 1656 3500 
L 1656 2988 
Q 1888 3294 2169 3439 
Q 2450 3584 2816 3584 
Q 3463 3584 3878 3070 
Q 4294 2556 4294 1747 
Q 4294 938 3878 423 
Q 3463 -91 2816 -91 
Q 2450 -91 2169 54 
Q 1888 200 1656 506 
z
M 2400 2772 
Q 2041 2772 1848 2508 
Q 1656 2244 1656 1747 
Q 1656 1250 1848 986 
Q 2041 722 2400 722 
Q 2759 722 2948 984 
Q 3138 1247 3138 1747 
Q 3138 2247 2948 2509 
Q 2759 2772 2400 2772 
z
" transform="scale(0.015625)"/>
      <path id="DejaVuSans-Bold-79" d="M 78 3500 
L 1197 3500 
L 2138 1125 
L 2938 3500 
L 4056 3500 
L 2584 -331 
Q 2363 -916 2067 -1148 
Q 1772 -1381 1288 -1381 
L 641 -1381 
L 641 -647 
L 991 -647 
Q 1275 -647 1404 -556 
Q 1534 -466 1606 -231 
L 1638 -134 
L 78 3500 
z
" transform="scale(0.015625)"/>
      <path id="DejaVuSans-Bold-29" d="M 513 -844 
Q 913 -100 1113 609 
Q 1313 1319 1313 2009 
Q 1313 2700 1113 3408 
Q 913 4116 513 4856 
L 1441 4856 
Q 1916 4091 2145 3389 
Q 2375 2688 2375 2003 
Q 2375 1319 2147 623 
Q 1919 -72 1441 -844 
L 513 -844 
z
" transform="scale(0.015625)"/>
     </defs>
     <use xlink:href="#DejaVuSans-Bold-28"/>
     <use xlink:href="#DejaVuSans-Bold-64" transform="translate(45.703125 0)"/>
     <use xlink:href="#DejaVuSans-Bold-61" transform="translate(117.285156 0)"/>
     <use xlink:href="#DejaVuSans-Bold-74" transform="translate(184.765625 0)"/>
     <use xlink:href="#DejaVuSans-Bold-61" transform="translate(232.568359 0)"/>
     <use xlink:href="#DejaVuSans-Bold-5f" transform="translate(300.048828 0)"/>
     <use xlink:href="#DejaVuSans-Bold-75" transform="translate(350.048828 0)"/>
     <use xlink:href="#DejaVuSans-Bold-74" transform="translate(421.240234 0)"/>
     <use xlink:href="#DejaVuSans-Bold-69" transform="translate(469.042969 0)"/>
     <use xlink:href="#DejaVuSans-Bold-6c" transform="translate(503.320312 0)"/>
     <use xlink:href="#DejaVuSans-Bold-73" transform="translate(537.597656 0)"/>
     <use xlink:href="#DejaVuSans-Bold-2e" transform="translate(597.119141 0)"/>
     <use xlink:href="#DejaVuSans-Bold-70" transform="translate(635.107422 0)"/>
     <use xlink:href="#DejaVuSans-Bold-79" transform="translate(706.689453 0)"/>
     <use xlink:href="#DejaVuSans-Bold-29" transform="translate(771.875 0)"/>
    </g>
   </g>
   <g id="text_2">
    <!-- Core Neural Network -->
    <g style="fill: #ffffff" transform="translate(491.785307 374.516864) scale(0.15 -0.15)">
     <defs>
      <path id="DejaVuSans-Bold-43" d="M 4288 256 
Q 3956 84 3597 -3 
Q 3238 -91 2847 -91 
Q 1681 -91 1000 561 
Q 319 1213 319 2328 
Q 319 3447 1000 4098 
Q 1681 4750 2847 4750 
Q 3238 4750 3597 4662 
Q 3956 4575 4288 4403 
L 4288 3438 
Q 3953 3666 3628 3772 
Q 3303 3878 2944 3878 
Q 2300 3878 1931 3465 
Q 1563 3053 1563 2328 
Q 1563 1606 1931 1193 
Q 2300 781 2944 781 
Q 3303 781 3628 887 
Q 3953 994 4288 1222 
L 4288 256 
z
" transform="scale(0.015625)"/>
      <path id="DejaVuSans-Bold-6f" d="M 2203 2784 
Q 1831 2784 1636 2517 
Q 1441 2250 1441 1747 
Q 1441 1244 1636 976 
Q 1831 709 2203 709 
Q 2569 709 2762 976 
Q 2956 1244 2956 1747 
Q 2956 2250 2762 2517 
Q 2569 2784 2203 2784 
z
M 2203 3584 
Q 3106 3584 3614 3096 
Q 4122 2609 4122 1747 
Q 4122 884 3614 396 
Q 3106 -91 2203 -91 
Q 1297 -91 786 396 
Q 275 884 275 1747 
Q 275 2609 786 3096 
Q 1297 3584 2203 3584 
z
" transform="scale(0.015625)"/>
      <path id="DejaVuSans-Bold-72" d="M 3138 2547 
Q 2991 2616 2845 2648 
Q 2700 2681 2553 2681 
Q 2122 2681 1889 2404 
Q 1656 2128 1656 1613 
L 1656 0 
L 538 0 
L 538 3500 
L 1656 3500 
L 1656 2925 
Q 1872 3269 2151 3426 
Q 2431 3584 2822 3584 
Q 2878 3584 2943 3579 
Q 3009 3575 3134 3559 
L 3138 2547 
z
" transform="scale(0.015625)"/>
      <path id="DejaVuSans-Bold-4e" d="M 588 4666 
L 1931 4666 
L 3628 1466 
L 3628 4666 
L 4769 4666 
L 4769 0 
L 3425 0 
L 1728 3200 
L 1728 0 
L 588 0 
L 588 4666 
z
" transform="scale(0.015625)"/>
      <path id="DejaVuSans-Bold-77" d="M 225 3500 
L 1313 3500 
L 1900 1088 
L 2491 3500 
L 3425 3500 
L 4013 1113 
L 4603 3500 
L 5691 3500 
L 4769 0 
L 3547 0 
L 2956 2406 
L 2369 0 
L 1147 0 
L 225 3500 
z
" transform="scale(0.015625)"/>
      <path id="DejaVuSans-Bold-6b" d="M 538 4863 
L 1656 4863 
L 1656 2216 
L 2944 3500 
L 4244 3500 
L 2534 1894 
L 4378 0 
L 3022 0 
L 1656 1459 
L 1656 0 
L 538 0 
L 538 4863 
z
" transform="scale(0.015625)"/>
     </defs>
     <use xlink:href="#DejaVuSans-Bold-43"/>
     <use xlink:href="#DejaVuSans-Bold-6f" transform="translate(73.388672 0)"/>
     <use xlink:href="#DejaVuSans-Bold-72" transform="translate(142.089844 0)"/>
     <use xlink:href="#DejaVuSans-Bold-65" transform="translate(191.40625 0)"/>
     <use xlink:href="#DejaVuSans-Bold-20" transform="translate(259.228516 0)"/>
     <use xlink:href="#DejaVuSans-Bold-4e" transform="translate(294.042969 0)"/>
     <use xlink:href="#DejaVuSans-Bold-65" transform="translate(377.734375 0)"/>
     <use xlink:href="#DejaVuSans-Bold-75" transform="translate(445.556641 0)"/>
     <use xlink:href="#DejaVuSans-Bold-72" transform="translate(516.748047 0)"/>
     <use xlink:href="#DejaVuSans-Bold-61" transform="translate(566.064453 0)"/>
     <use xlink:href="#DejaVuSans-Bold-6c" transform="translate(633.544922 0)"/>
     <use xlink:href="#DejaVuSans-Bold-20" transform="translate(667.822266 0)"/>
     <use xlink:href="#DejaVuSans-Bold-4e" transform="translate(702.636719 0)"/>
     <use xlink:href="#DejaVuSans-Bold-65" transform="translate(786.328125 0)"/>
     <use xlink:href="#DejaVuSans-Bold-74" transform="translate(854.150391 0)"/>
     <use xlink:href="#DejaVuSans-Bold-77" transform="translate(901.953125 0)"/>
     <use xlink:href="#DejaVuSans-Bold-6f" transform="translate(994.335938 0)"/>
     <use xlink:href="#DejaVuSans-Bold-72" transform="translate(1063.037109 0)"/>
     <use xlink:href="#DejaVuSans-Bold-6b" transform="translate(1112.353516 0)"/>
    </g>
    <!-- (nn_core.py) -->
    <g style="fill: #ffffff" transform="translate(527.425541 391.313583) scale(0.15 -0.15)">
     <defs>
      <path id="DejaVuSans-Bold-63" d="M 3366 3391 
L 3366 2478 
Q 3138 2634 2908 2709 
Q 2678 2784 2431 2784 
Q 1963 2784 1702 2511 
Q 1441 2238 1441 1747 
Q 1441 1256 1702 982 
Q 1963 709 2431 709 
Q 2694 709 2930 787 
Q 3166 866 3366 1019 
L 3366 103 
Q 3103 6 2833 -42 
Q 2563 -91 2291 -91 
Q 1344 -91 809 395 
Q 275 881 275 1747 
Q 275 2613 809 3098 
Q 1344 3584 2291 3584 
Q 2566 3584 2833 3536 
Q 3100 3488 3366 3391 
z
" transform="scale(0.015625)"/>
     </defs>
     <use xlink:href="#DejaVuSans-Bold-28"/>
     <use xlink:href="#DejaVuSans-Bold-6e" transform="translate(45.703125 0)"/>
     <use xlink:href="#DejaVuSans-Bold-6e" transform="translate(116.894531 0)"/>
     <use xlink:href="#DejaVuSans-Bold-5f" transform="translate(188.085938 0)"/>
     <use xlink:href="#DejaVuSans-Bold-63" transform="translate(238.085938 0)"/>
     <use xlink:href="#DejaVuSans-Bold-6f" transform="translate(297.363281 0)"/>
     <use xlink:href="#DejaVuSans-Bold-72" transform="translate(366.064453 0)"/>
     <use xlink:href="#DejaVuSans-Bold-65" transform="translate(415.380859 0)"/>
     <use xlink:href="#DejaVuSans-Bold-2e" transform="translate(483.203125 0)"/>
     <use xlink:href="#DejaVuSans-Bold-70" transform="translate(521.191406 0)"/>
     <use xlink:href="#DejaVuSans-Bold-79" transform="translate(592.773438 0)"/>
     <use xlink:href="#DejaVuSans-Bold-29" transform="translate(657.958984 0)"/>
    </g>
   </g>
   <g id="text_3">
    <!-- Automatic Differentiation -->
    <g style="fill: #ffffff" transform="translate(829.955469 374.666864) scale(0.15 -0.15)">
     <defs>
      <path id="DejaVuSans-Bold-41" d="M 3419 850 
L 1538 850 
L 1241 0 
L 31 0 
L 1759 4666 
L 3194 4666 
L 4922 0 
L 3713 0 
L 3419 850 
z
M 1838 1716 
L 3116 1716 
L 2478 3572 
L 1838 1716 
z
" transform="scale(0.015625)"/>
      <path id="DejaVuSans-Bold-66" d="M 2841 4863 
L 2841 4128 
L 2222 4128 
Q 1984 4128 1890 4042 
Q 1797 3956 1797 3744 
L 1797 3500 
L 2753 3500 
L 2753 2700 
L 1797 2700 
L 1797 0 
L 678 0 
L 678 2700 
L 122 2700 
L 122 3500 
L 678 3500 
L 678 3744 
Q 678 4316 997 4589 
Q 1316 4863 1984 4863 
L 2841 4863 
z
" transform="scale(0.015625)"/>
     </defs>
     <use xlink:href="#DejaVuSans-Bold-41"/>
     <use xlink:href="#DejaVuSans-Bold-75" transform="translate(77.392578 0)"/>
     <use xlink:href="#DejaVuSans-Bold-74" transform="translate(148.583984 0)"/>
     <use xlink:href="#DejaVuSans-Bold-6f" transform="translate(196.386719 0)"/>
     <use xlink:href="#DejaVuSans-Bold-6d" transform="translate(265.087891 0)"/>
     <use xlink:href="#DejaVuSans-Bold-61" transform="translate(369.287109 0)"/>
     <use xlink:href="#DejaVuSans-Bold-74" transform="translate(436.767578 0)"/>
     <use xlink:href="#DejaVuSans-Bold-69" transform="translate(484.570312 0)"/>
     <use xlink:href="#DejaVuSans-Bold-63" transform="translate(518.847656 0)"/>
     <use xlink:href="#DejaVuSans-Bold-20" transform="translate(578.125 0)"/>
     <use xlink:href="#DejaVuSans-Bold-44" transform="translate(612.939453 0)"/>
     <use xlink:href="#DejaVuSans-Bold-69" transform="translate(695.947266 0)"/>
     <use xlink:href="#DejaVuSans-Bold-66" transform="translate(730.224609 0)"/>
     <use xlink:href="#DejaVuSans-Bold-66" transform="translate(773.730469 0)"/>
     <use xlink:href="#DejaVuSans-Bold-65" transform="translate(817.236328 0)"/>
     <use xlink:href="#DejaVuSans-Bold-72" transform="translate(885.058594 0)"/>
     <use xlink:href="#DejaVuSans-Bold-65" transform="translate(934.375 0)"/>
     <use xlink:href="#DejaVuSans-Bold-6e" transform="translate(1002.197266 0)"/>
     <use xlink:href="#DejaVuSans-Bold-74" transform="translate(1073.388672 0)"/>
     <use xlink:href="#DejaVuSans-Bold-69" transform="translate(1121.191406 0)"/>
     <use xlink:href="#DejaVuSans-Bold-61" transform="translate(1155.46875 0)"/>
     <use xlink:href="#DejaVuSans-Bold-74" transform="translate(1222.949219 0)"/>
     <use xlink:href="#DejaVuSans-Bold-69" transform="translate(1270.751953 0)"/>
     <use xlink:href="#DejaVuSans-Bold-6f" transform="translate(1305.029297 0)"/>
     <use xlink:href="#DejaVuSans-Bold-6e" transform="translate(1373.730469 0)"/>
    </g>
    <!-- (autodiff.py) -->
    <g style="fill: #ffffff" transform="translate(885.173047 391.463583) scale(0.15 -0.15)">
     <use xlink:href="#DejaVuSans-Bold-28"/>
     <use xlink:href="#DejaVuSans-Bold-61" transform="translate(45.703125 0)"/>
     <use xlink:href="#DejaVuSans-Bold-75" transform="translate(113.183594 0)"/>
     <use xlink:href="#DejaVuSans-Bold-74" transform="translate(184.375 0)"/>
     <use xlink:href="#DejaVuSans-Bold-6f" transform="translate(232.177734 0)"/>
     <use xlink:href="#DejaVuSans-Bold-64" transform="translate(300.878906 0)"/>
     <use xlink:href="#DejaVuSans-Bold-69" transform="translate(372.460938 0)"/>
     <use xlink:href="#DejaVuSans-Bold-66" transform="translate(406.738281 0)"/>
     <use xlink:href="#DejaVuSans-Bold-66" transform="translate(450.244141 0)"/>
     <use xlink:href="#DejaVuSans-Bold-2e" transform="translate(488.25 0)"/>
     <use xlink:href="#DejaVuSans-Bold-70" transform="translate(526.238281 0)"/>
     <use xlink:href="#DejaVuSans-Bold-79" transform="translate(597.820312 0)"/>
     <use xlink:href="#DejaVuSans-Bold-29" transform="translate(663.005859 0)"/>
    </g>
   </g>
   <g id="text_4">
    <!-- Utility Framework -->
    <g style="fill: #ffffff" transform="translate(504.651322 576.826086) scale(0.15 -0.15)">
     <defs>
      <path id="DejaVuSans-Bold-55" d="M 588 4666 
L 1791 4666 
L 1791 1869 
Q 1791 1291 1980 1042 
Q 2169 794 2597 794 
Q 3028 794 3217 1042 
Q 3406 1291 3406 1869 
L 3406 4666 
L 4609 4666 
L 4609 1869 
Q 4609 878 4112 393 
Q 3616 -91 2597 -91 
Q 1581 -91 1084 393 
Q 588 878 588 1869 
L 588 4666 
z
" transform="scale(0.015625)"/>
      <path id="DejaVuSans-Bold-46" d="M 588 4666 
L 3834 4666 
L 3834 3756 
L 1791 3756 
L 1791 2888 
L 3713 2888 
L 3713 1978 
L 1791 1978 
L 1791 0 
L 588 0 
L 588 4666 
z
" transform="scale(0.015625)"/>
     </defs>
     <use xlink:href="#DejaVuSans-Bold-55"/>
     <use xlink:href="#DejaVuSans-Bold-74" transform="translate(81.201172 0)"/>
     <use xlink:href="#DejaVuSans-Bold-69" transform="translate(129.003906 0)"/>
     <use xlink:href="#DejaVuSans-Bold-6c" transform="translate(163.28125 0)"/>
     <use xlink:href="#DejaVuSans-Bold-69" transform="translate(197.558594 0)"/>
     <use xlink:href="#DejaVuSans-Bold-74" transform="translate(231.835938 0)"/>
     <use xlink:href="#DejaVuSans-Bold-79" transform="translate(279.638672 0)"/>
     <use xlink:href="#DejaVuSans-Bold-20" transform="translate(344.824219 0)"/>
     <use xlink:href="#DejaVuSans-Bold-46" transform="translate(379.638672 0)"/>
     <use xlink:href="#DejaVuSans-Bold-72" transform="translate(441.574219 0)"/>
     <use xlink:href="#DejaVuSans-Bold-61" transform="translate(490.890625 0)"/>
     <use xlink:href="#DejaVuSans-Bold-6d" transform="translate(558.371094 0)"/>
     <use xlink:href="#DejaVuSans-Bold-65" transform="translate(662.570312 0)"/>
     <use xlink:href="#DejaVuSans-Bold-77" transform="translate(730.392578 0)"/>
     <use xlink:href="#DejaVuSans-Bold-6f" transform="translate(822.775391 0)"/>
     <use xlink:href="#DejaVuSans-Bold-72" transform="translate(891.476562 0)"/>
     <use xlink:href="#DejaVuSans-Bold-6b" transform="translate(940.792969 0)"/>
    </g>
    <!-- (utils.py) -->
    <g style="fill: #ffffff" transform="translate(541.708354 593.739993) scale(0.15 -0.15)">
     <use xlink:href="#DejaVuSans-Bold-28"/>
     <use xlink:href="#DejaVuSans-Bold-75" transform="translate(45.703125 0)"/>
     <use xlink:href="#DejaVuSans-Bold-74" transform="translate(116.894531 0)"/>
     <use xlink:href="#DejaVuSans-Bold-69" transform="translate(164.697266 0)"/>
     <use xlink:href="#DejaVuSans-Bold-6c" transform="translate(198.974609 0)"/>
     <use xlink:href="#DejaVuSans-Bold-73" transform="translate(233.251953 0)"/>
     <use xlink:href="#DejaVuSans-Bold-2e" transform="translate(292.773438 0)"/>
     <use xlink:href="#DejaVuSans-Bold-70" transform="translate(330.761719 0)"/>
     <use xlink:href="#DejaVuSans-Bold-79" transform="translate(402.34375 0)"/>
     <use xlink:href="#DejaVuSans-Bold-29" transform="translate(467.529297 0)"/>
    </g>
   </g>
   <g id="text_5">
    <!-- Training Pipeline -->
    <g style="fill: #ffffff" transform="translate(509.256791 180.847408) scale(0.15 -0.15)">
     <defs>
      <path id="DejaVuSans-Bold-54" d="M 31 4666 
L 4331 4666 
L 4331 3756 
L 2784 3756 
L 2784 0 
L 1581 0 
L 1581 3756 
L 31 3756 
L 31 4666 
z
" transform="scale(0.015625)"/>
      <path id="DejaVuSans-Bold-50" d="M 588 4666 
L 2584 4666 
Q 3475 4666 3951 4270 
Q 4428 3875 4428 3144 
Q 4428 2409 3951 2014 
Q 3475 1619 2584 1619 
L 1791 1619 
L 1791 0 
L 588 0 
L 588 4666 
z
M 1791 3794 
L 1791 2491 
L 2456 2491 
Q 2806 2491 2997 2661 
Q 3188 2831 3188 3144 
Q 3188 3456 2997 3625 
Q 2806 3794 2456 3794 
L 1791 3794 
z
" transform="scale(0.015625)"/>
     </defs>
     <use xlink:href="#DejaVuSans-Bold-54"/>
     <use xlink:href="#DejaVuSans-Bold-72" transform="translate(57.212891 0)"/>
     <use xlink:href="#DejaVuSans-Bold-61" transform="translate(106.529297 0)"/>
     <use xlink:href="#DejaVuSans-Bold-69" transform="translate(174.009766 0)"/>
     <use xlink:href="#DejaVuSans-Bold-6e" transform="translate(208.287109 0)"/>
     <use xlink:href="#DejaVuSans-Bold-69" transform="translate(279.478516 0)"/>
     <use xlink:href="#DejaVuSans-Bold-6e" transform="translate(313.755859 0)"/>
     <use xlink:href="#DejaVuSans-Bold-67" transform="translate(384.947266 0)"/>
     <use xlink:href="#DejaVuSans-Bold-20" transform="translate(456.529297 0)"/>
     <use xlink:href="#DejaVuSans-Bold-50" transform="translate(491.34375 0)"/>
     <use xlink:href="#DejaVuSans-Bold-69" transform="translate(564.634766 0)"/>
     <use xlink:href="#DejaVuSans-Bold-70" transform="translate(598.912109 0)"/>
     <use xlink:href="#DejaVuSans-Bold-65" transform="translate(670.494141 0)"/>
     <use xlink:href="#DejaVuSans-Bold-6c" transform="translate(738.316406 0)"/>
     <use xlink:href="#DejaVuSans-Bold-69" transform="translate(772.59375 0)"/>
     <use xlink:href="#DejaVuSans-Bold-6e" transform="translate(806.871094 0)"/>
     <use xlink:href="#DejaVuSans-Bold-65" transform="translate(878.0625 0)"/>
    </g>
   </g>
   <g id="patch_7">
    <path d="M 331.510205 378.984755 
Q 401.138334 378.984755 467.412362 378.984755 
" style="fill: none; opacity: 0.9; stroke: #00bfff; stroke-width: 3; stroke-linecap: round"/>
    <path d="M 463.412362 376.984755 
L 467.412362 378.984755 
L 463.412362 380.984755 
" style="fill: none; opacity: 0.9; stroke: #00bfff; stroke-width: 3; stroke-linecap: round"/>
   </g>
   <g id="text_6">
    <g id="patch_8">
     <path d="M 356.946397 366.446759 
L 445.328272 366.446759 
Q 451.328272 366.446759 451.328272 360.446759 
L 451.328272 335.395634 
Q 451.328272 329.395634 445.328272 329.395634 
L 356.946397 329.395634 
Q 350.946397 329.395634 350.946397 335.395634 
L 350.946397 360.446759 
Q 350.946397 366.446759 356.946397 366.446759 
z
" style="opacity: 0.85; stroke: #00bfff; stroke-linejoin: miter"/>
    </g>
    <!-- Data Input -->
    <g style="fill: #00bfff" transform="translate(365.164522 344.420009) scale(0.12 -0.12)">
     <defs>
      <path id="DejaVuSans-Bold-49" d="M 588 4666 
L 1791 4666 
L 1791 0 
L 588 0 
L 588 4666 
z
" transform="scale(0.015625)"/>
     </defs>
     <use xlink:href="#DejaVuSans-Bold-44"/>
     <use xlink:href="#DejaVuSans-Bold-61" transform="translate(83.007812 0)"/>
     <use xlink:href="#DejaVuSans-Bold-74" transform="translate(150.488281 0)"/>
     <use xlink:href="#DejaVuSans-Bold-61" transform="translate(198.291016 0)"/>
     <use xlink:href="#DejaVuSans-Bold-20" transform="translate(265.771484 0)"/>
     <use xlink:href="#DejaVuSans-Bold-49" transform="translate(300.585938 0)"/>
     <use xlink:href="#DejaVuSans-Bold-6e" transform="translate(337.792969 0)"/>
     <use xlink:href="#DejaVuSans-Bold-70" transform="translate(408.984375 0)"/>
     <use xlink:href="#DejaVuSans-Bold-75" transform="translate(480.566406 0)"/>
     <use xlink:href="#DejaVuSans-Bold-74" transform="translate(551.757812 0)"/>
    </g>
    <!-- &amp; Processing -->
    <g style="fill: #00bfff" transform="translate(356.946397 357.857384) scale(0.12 -0.12)">
     <defs>
      <path id="DejaVuSans-Bold-26" d="M 2497 3097 
L 3775 1691 
Q 3941 1909 4027 2181 
Q 4113 2453 4128 2797 
L 5100 2797 
Q 5053 2228 4879 1784 
Q 4706 1341 4397 1006 
L 5313 0 
L 3988 0 
L 3681 341 
Q 3353 122 2990 15 
Q 2628 -91 2222 -91 
Q 1400 -91 892 342 
Q 384 775 384 1459 
Q 384 1916 607 2267 
Q 831 2619 1338 2950 
Q 1206 3116 1143 3281 
Q 1081 3447 1081 3628 
Q 1081 4138 1478 4444 
Q 1875 4750 2534 4750 
Q 2819 4750 3126 4704 
Q 3434 4659 3769 4569 
L 3769 3700 
Q 3475 3850 3212 3922 
Q 2950 3994 2700 3994 
Q 2459 3994 2326 3901 
Q 2194 3809 2194 3641 
Q 2194 3534 2270 3398 
Q 2347 3263 2497 3097 
z
M 1875 2322 
Q 1672 2175 1569 1989 
Q 1466 1803 1466 1581 
Q 1466 1222 1731 969 
Q 1997 716 2369 716 
Q 2578 716 2759 780 
Q 2941 844 3097 972 
L 1875 2322 
z
" transform="scale(0.015625)"/>
     </defs>
     <use xlink:href="#DejaVuSans-Bold-26"/>
     <use xlink:href="#DejaVuSans-Bold-20" transform="translate(87.207031 0)"/>
     <use xlink:href="#DejaVuSans-Bold-50" transform="translate(122.021484 0)"/>
     <use xlink:href="#DejaVuSans-Bold-72" transform="translate(195.3125 0)"/>
     <use xlink:href="#DejaVuSans-Bold-6f" transform="translate(244.628906 0)"/>
     <use xlink:href="#DejaVuSans-Bold-63" transform="translate(313.330078 0)"/>
     <use xlink:href="#DejaVuSans-Bold-65" transform="translate(372.607422 0)"/>
     <use xlink:href="#DejaVuSans-Bold-73" transform="translate(440.429688 0)"/>
     <use xlink:href="#DejaVuSans-Bold-73" transform="translate(499.951172 0)"/>
     <use xlink:href="#DejaVuSans-Bold-69" transform="translate(559.472656 0)"/>
     <use xlink:href="#DejaVuSans-Bold-6e" transform="translate(593.75 0)"/>
     <use xlink:href="#DejaVuSans-Bold-67" transform="translate(664.941406 0)"/>
    </g>
   </g>
   <g id="patch_9">
    <path d="M 689.635055 378.984755 
Q 759.263184 378.984755 825.537212 378.984755 
" style="fill: none; opacity: 0.9; stroke: #00bfff; stroke-width: 3; stroke-linecap: round"/>
    <path d="M 821.537212 376.984755 
L 825.537212 378.984755 
L 821.537212 380.984755 
" style="fill: none; opacity: 0.9; stroke: #00bfff; stroke-width: 3; stroke-linecap: round"/>
   </g>
   <g id="text_7">
    <g id="patch_10">
     <path d="M 713.95656 366.399884 
L 804.56781 366.399884 
Q 810.56781 366.399884 810.56781 360.399884 
L 810.56781 335.348759 
Q 810.56781 329.348759 804.56781 329.348759 
L 713.95656 329.348759 
Q 707.95656 329.348759 707.95656 335.348759 
L 707.95656 360.399884 
Q 707.95656 366.399884 713.95656 366.399884 
z
" style="opacity: 0.85; stroke: #00bfff; stroke-linejoin: miter"/>
    </g>
    <!-- Forward Pass -->
    <g style="fill: #00bfff" transform="translate(713.95656 344.466884) scale(0.12 -0.12)">
     <use xlink:href="#DejaVuSans-Bold-46"/>
     <use xlink:href="#DejaVuSans-Bold-6f" transform="translate(64.310547 0)"/>
     <use xlink:href="#DejaVuSans-Bold-72" transform="translate(133.011719 0)"/>
     <use xlink:href="#DejaVuSans-Bold-77" transform="translate(182.328125 0)"/>
     <use xlink:href="#DejaVuSans-Bold-61" transform="translate(274.710938 0)"/>
     <use xlink:href="#DejaVuSans-Bold-72" transform="translate(342.191406 0)"/>
     <use xlink:href="#DejaVuSans-Bold-64" transform="translate(391.507812 0)"/>
     <use xlink:href="#DejaVuSans-Bold-20" transform="translate(463.089844 0)"/>
     <use xlink:href="#DejaVuSans-Bold-50" transform="translate(497.904297 0)"/>
     <use xlink:href="#DejaVuSans-Bold-61" transform="translate(568.570312 0)"/>
     <use xlink:href="#DejaVuSans-Bold-73" transform="translate(636.050781 0)"/>
     <use xlink:href="#DejaVuSans-Bold-73" transform="translate(695.572266 0)"/>
    </g>
    <!-- &amp; Gradients -->
    <g style="fill: #00bfff" transform="translate(718.877497 357.904259) scale(0.12 -0.12)">
     <defs>
      <path id="DejaVuSans-Bold-47" d="M 4781 347 
Q 4331 128 3847 18 
Q 3363 -91 2847 -91 
Q 1681 -91 1000 561 
Q 319 1213 319 2328 
Q 319 3456 1012 4103 
Q 1706 4750 2913 4750 
Q 3378 4750 3804 4662 
Q 4231 4575 4609 4403 
L 4609 3438 
Q 4219 3659 3833 3768 
Q 3447 3878 3059 3878 
Q 2341 3878 1952 3476 
Q 1563 3075 1563 2328 
Q 1563 1588 1938 1184 
Q 2313 781 3003 781 
Q 3191 781 3352 804 
Q 3513 828 3641 878 
L 3641 1784 
L 2906 1784 
L 2906 2591 
L 4781 2591 
L 4781 347 
z
" transform="scale(0.015625)"/>
     </defs>
     <use xlink:href="#DejaVuSans-Bold-26"/>
     <use xlink:href="#DejaVuSans-Bold-20" transform="translate(87.207031 0)"/>
     <use xlink:href="#DejaVuSans-Bold-47" transform="translate(122.021484 0)"/>
     <use xlink:href="#DejaVuSans-Bold-72" transform="translate(204.101562 0)"/>
     <use xlink:href="#DejaVuSans-Bold-61" transform="translate(253.417969 0)"/>
     <use xlink:href="#DejaVuSans-Bold-64" transform="translate(320.898438 0)"/>
     <use xlink:href="#DejaVuSans-Bold-69" transform="translate(392.480469 0)"/>
     <use xlink:href="#DejaVuSans-Bold-65" transform="translate(426.757812 0)"/>
     <use xlink:href="#DejaVuSans-Bold-6e" transform="translate(494.580078 0)"/>
     <use xlink:href="#DejaVuSans-Bold-74" transform="translate(565.771484 0)"/>
     <use xlink:href="#DejaVuSans-Bold-73" transform="translate(613.574219 0)"/>
    </g>
   </g>
   <g id="patch_11">
    <path d="M 825.631896 409.067561 
Q 759.261672 396.157289 689.599056 409.708194 
" style="fill: none; opacity: 0.9; stroke: #ff4500; stroke-width: 3; stroke-linecap: round"/>
    <path d="M 822.08737 406.340597 
L 825.631896 409.067561 
L 821.323609 410.267004 
" style="fill: none; opacity: 0.9; stroke: #ff4500; stroke-width: 3; stroke-linecap: round"/>
   </g>
   <g id="text_8">
    <g id="patch_12">
     <path d="M 726.198435 459.731184 
L 792.325935 459.731184 
Q 798.325935 459.731184 798.325935 453.731184 
L 798.325935 428.680059 
Q 798.325935 422.680059 792.325935 422.680059 
L 726.198435 422.680059 
Q 720.198435 422.680059 720.198435 428.680059 
L 720.198435 453.731184 
Q 720.198435 459.731184 726.198435 459.731184 
z
" style="opacity: 0.85; stroke: #ff4500; stroke-linejoin: miter"/>
    </g>
    <!-- Backprop -->
    <g style="fill: #ff4500" transform="translate(727.42281 437.798184) scale(0.12 -0.12)">
     <defs>
      <path id="DejaVuSans-Bold-42" d="M 2456 2859 
Q 2741 2859 2887 2984 
Q 3034 3109 3034 3353 
Q 3034 3594 2887 3720 
Q 2741 3847 2456 3847 
L 1791 3847 
L 1791 2859 
L 2456 2859 
z
M 2497 819 
Q 2859 819 3042 972 
Q 3225 1125 3225 1434 
Q 3225 1738 3044 1889 
Q 2863 2041 2497 2041 
L 1791 2041 
L 1791 819 
L 2497 819 
z
M 3616 2497 
Q 4003 2384 4215 2081 
Q 4428 1778 4428 1338 
Q 4428 663 3972 331 
Q 3516 0 2584 0 
L 588 0 
L 588 4666 
L 2394 4666 
Q 3366 4666 3802 4372 
Q 4238 4078 4238 3431 
Q 4238 3091 4078 2852 
Q 3919 2613 3616 2497 
z
" transform="scale(0.015625)"/>
     </defs>
     <use xlink:href="#DejaVuSans-Bold-42"/>
     <use xlink:href="#DejaVuSans-Bold-61" transform="translate(76.220703 0)"/>
     <use xlink:href="#DejaVuSans-Bold-63" transform="translate(143.701172 0)"/>
     <use xlink:href="#DejaVuSans-Bold-6b" transform="translate(202.978516 0)"/>
     <use xlink:href="#DejaVuSans-Bold-70" transform="translate(269.482422 0)"/>
     <use xlink:href="#DejaVuSans-Bold-72" transform="translate(341.064453 0)"/>
     <use xlink:href="#DejaVuSans-Bold-6f" transform="translate(390.380859 0)"/>
     <use xlink:href="#DejaVuSans-Bold-70" transform="translate(459.082031 0)"/>
    </g>
    <!-- Gradients -->
    <g style="fill: #ff4500" transform="translate(726.198435 451.235559) scale(0.12 -0.12)">
     <use xlink:href="#DejaVuSans-Bold-47"/>
     <use xlink:href="#DejaVuSans-Bold-72" transform="translate(82.080078 0)"/>
     <use xlink:href="#DejaVuSans-Bold-61" transform="translate(131.396484 0)"/>
     <use xlink:href="#DejaVuSans-Bold-64" transform="translate(198.876953 0)"/>
     <use xlink:href="#DejaVuSans-Bold-69" transform="translate(270.458984 0)"/>
     <use xlink:href="#DejaVuSans-Bold-65" transform="translate(304.736328 0)"/>
     <use xlink:href="#DejaVuSans-Bold-6e" transform="translate(372.558594 0)"/>
     <use xlink:href="#DejaVuSans-Bold-74" transform="translate(443.75 0)"/>
     <use xlink:href="#DejaVuSans-Bold-73" transform="translate(491.552734 0)"/>
    </g>
   </g>
   <g id="patch_13">
    <path d="M 580.19976 532.534605 
Q 580.19976 487.869302 580.19976 446.558102 
" style="fill: none; opacity: 0.9; stroke: #32cd32; stroke-width: 3; stroke-linecap: round"/>
    <path d="M 578.19976 450.558102 
L 580.19976 446.558102 
L 582.19976 450.558102 
" style="fill: none; opacity: 0.9; stroke: #32cd32; stroke-width: 3; stroke-linecap: round"/>
   </g>
   <g id="text_9">
    <g id="patch_14">
     <path d="M 654.850027 506.396834 
L 720.424402 506.396834 
Q 726.424402 506.396834 726.424402 500.396834 
L 726.424402 475.345709 
Q 726.424402 469.345709 720.424402 469.345709 
L 654.850027 469.345709 
Q 648.850027 469.345709 648.850027 475.345709 
L 648.850027 500.396834 
Q 648.850027 506.396834 654.850027 506.396834 
z
" style="opacity: 0.85; stroke: #32cd32; stroke-linejoin: miter"/>
    </g>
    <!-- Helper -->
    <g style="fill: #32cd32" transform="translate(665.166277 484.463834) scale(0.12 -0.12)">
     <defs>
      <path id="DejaVuSans-Bold-48" d="M 588 4666 
L 1791 4666 
L 1791 2888 
L 3566 2888 
L 3566 4666 
L 4769 4666 
L 4769 0 
L 3566 0 
L 3566 1978 
L 1791 1978 
L 1791 0 
L 588 0 
L 588 4666 
z
" transform="scale(0.015625)"/>
     </defs>
     <use xlink:href="#DejaVuSans-Bold-48"/>
     <use xlink:href="#DejaVuSans-Bold-65" transform="translate(83.691406 0)"/>
     <use xlink:href="#DejaVuSans-Bold-6c" transform="translate(151.513672 0)"/>
     <use xlink:href="#DejaVuSans-Bold-70" transform="translate(185.791016 0)"/>
     <use xlink:href="#DejaVuSans-Bold-65" transform="translate(257.373047 0)"/>
     <use xlink:href="#DejaVuSans-Bold-72" transform="translate(325.195312 0)"/>
    </g>
    <!-- Functions -->
    <g style="fill: #32cd32" transform="translate(654.850027 497.901209) scale(0.12 -0.12)">
     <use xlink:href="#DejaVuSans-Bold-46"/>
     <use xlink:href="#DejaVuSans-Bold-75" transform="translate(63.310547 0)"/>
     <use xlink:href="#DejaVuSans-Bold-6e" transform="translate(134.501953 0)"/>
     <use xlink:href="#DejaVuSans-Bold-63" transform="translate(205.693359 0)"/>
     <use xlink:href="#DejaVuSans-Bold-74" transform="translate(264.970703 0)"/>
     <use xlink:href="#DejaVuSans-Bold-69" transform="translate(312.773438 0)"/>
     <use xlink:href="#DejaVuSans-Bold-6f" transform="translate(347.050781 0)"/>
     <use xlink:href="#DejaVuSans-Bold-6e" transform="translate(415.751953 0)"/>
     <use xlink:href="#DejaVuSans-Bold-73" transform="translate(486.943359 0)"/>
    </g>
   </g>
   <g id="patch_15">
    <path d="M 580.19976 228.789008 
Q 580.19976 270.100208 580.19976 314.76551 
" style="fill: none; opacity: 0.9; stroke: #32cd32; stroke-width: 3; stroke-linecap: round"/>
    <path d="M 578.19976 232.789008 
L 580.19976 228.789008 
L 582.19976 232.789008 
" style="fill: none; opacity: 0.9; stroke: #32cd32; stroke-width: 3; stroke-linecap: round"/>
   </g>
   <g id="text_10">
    <g id="patch_16">
     <path d="M 445.37043 288.670676 
L 500.15418 288.670676 
Q 506.15418 288.670676 506.15418 282.670676 
L 506.15418 257.432051 
Q 506.15418 251.432051 500.15418 251.432051 
L 445.37043 251.432051 
Q 439.37043 251.432051 439.37043 257.432051 
L 439.37043 282.670676 
Q 439.37043 288.670676 445.37043 288.670676 
z
" style="opacity: 0.85; stroke: #32cd32; stroke-linejoin: miter"/>
    </g>
    <!-- Training -->
    <g style="fill: #32cd32" transform="translate(445.37043 266.643926) scale(0.12 -0.12)">
     <use xlink:href="#DejaVuSans-Bold-54"/>
     <use xlink:href="#DejaVuSans-Bold-72" transform="translate(57.212891 0)"/>
     <use xlink:href="#DejaVuSans-Bold-61" transform="translate(106.529297 0)"/>
     <use xlink:href="#DejaVuSans-Bold-69" transform="translate(174.009766 0)"/>
     <use xlink:href="#DejaVuSans-Bold-6e" transform="translate(208.287109 0)"/>
     <use xlink:href="#DejaVuSans-Bold-69" transform="translate(279.478516 0)"/>
     <use xlink:href="#DejaVuSans-Bold-6e" transform="translate(313.755859 0)"/>
     <use xlink:href="#DejaVuSans-Bold-67" transform="translate(384.947266 0)"/>
    </g>
    <!-- Control -->
    <g style="fill: #32cd32" transform="translate(447.959805 280.175051) scale(0.12 -0.12)">
     <use xlink:href="#DejaVuSans-Bold-43"/>
     <use xlink:href="#DejaVuSans-Bold-6f" transform="translate(73.388672 0)"/>
     <use xlink:href="#DejaVuSans-Bold-6e" transform="translate(142.089844 0)"/>
     <use xlink:href="#DejaVuSans-Bold-74" transform="translate(213.28125 0)"/>
     <use xlink:href="#DejaVuSans-Bold-72" transform="translate(261.083984 0)"/>
     <use xlink:href="#DejaVuSans-Bold-6f" transform="translate(310.400391 0)"/>
     <use xlink:href="#DejaVuSans-Bold-6c" transform="translate(379.101562 0)"/>
    </g>
   </g>
   <g id="text_11">
    <g id="patch_17">
     <path d="M 146.056394 519.630252 
L 298.093426 519.630252 
Q 305.893426 519.630252 305.893426 511.830252 
L 305.893426 470.134377 
Q 305.893426 462.334377 298.093426 462.334377 
L 146.056394 462.334377 
Q 138.256394 462.334377 138.256394 470.134377 
L 138.256394 511.830252 
Q 138.256394 519.630252 146.056394 519.630252 
z
" style="opacity: 0.85; stroke: #00bfff; stroke-linejoin: miter"/>
    </g>
    <!-- • Load/preprocess data -->
    <g style="fill: #00bfff" transform="translate(146.056394 480.012346) scale(0.13 -0.13)">
     <defs>
      <path id="DejaVuSans-2022" d="M 959 2381 
Q 959 2769 1229 3036 
Q 1500 3303 1894 3303 
Q 2281 3303 2548 3036 
Q 2816 2769 2816 2381 
Q 2816 1991 2547 1722 
Q 2278 1453 1888 1453 
Q 1497 1453 1228 1722 
Q 959 1991 959 2381 
z
" transform="scale(0.015625)"/>
      <path id="DejaVuSans-20" transform="scale(0.015625)"/>
      <path id="DejaVuSans-4c" d="M 628 4666 
L 1259 4666 
L 1259 531 
L 3531 531 
L 3531 0 
L 628 0 
L 628 4666 
z
" transform="scale(0.015625)"/>
      <path id="DejaVuSans-6f" d="M 1959 3097 
Q 1497 3097 1228 2736 
Q 959 2375 959 1747 
Q 959 1119 1226 758 
Q 1494 397 1959 397 
Q 2419 397 2687 759 
Q 2956 1122 2956 1747 
Q 2956 2369 2687 2733 
Q 2419 3097 1959 3097 
z
M 1959 3584 
Q 2709 3584 3137 3096 
Q 3566 2609 3566 1747 
Q 3566 888 3137 398 
Q 2709 -91 1959 -91 
Q 1206 -91 779 398 
Q 353 888 353 1747 
Q 353 2609 779 3096 
Q 1206 3584 1959 3584 
z
" transform="scale(0.015625)"/>
      <path id="DejaVuSans-61" d="M 2194 1759 
Q 1497 1759 1228 1600 
Q 959 1441 959 1056 
Q 959 750 1161 570 
Q 1363 391 1709 391 
Q 2188 391 2477 730 
Q 2766 1069 2766 1631 
L 2766 1759 
L 2194 1759 
z
M 3341 1997 
L 3341 0 
L 2766 0 
L 2766 531 
Q 2569 213 2275 61 
Q 1981 -91 1556 -91 
Q 1019 -91 701 211 
Q 384 513 384 1019 
Q 384 1609 779 1909 
Q 1175 2209 1959 2209 
L 2766 2209 
L 2766 2266 
Q 2766 2663 2505 2880 
Q 2244 3097 1772 3097 
Q 1472 3097 1187 3025 
Q 903 2953 641 2809 
L 641 3341 
Q 956 3463 1253 3523 
Q 1550 3584 1831 3584 
Q 2591 3584 2966 3190 
Q 3341 2797 3341 1997 
z
" transform="scale(0.015625)"/>
      <path id="DejaVuSans-64" d="M 2906 2969 
L 2906 4863 
L 3481 4863 
L 3481 0 
L 2906 0 
L 2906 525 
Q 2725 213 2448 61 
Q 2172 -91 1784 -91 
Q 1150 -91 751 415 
Q 353 922 353 1747 
Q 353 2572 751 3078 
Q 1150 3584 1784 3584 
Q 2172 3584 2448 3432 
Q 2725 3281 2906 2969 
z
M 947 1747 
Q 947 1113 1208 752 
Q 1469 391 1925 391 
Q 2381 391 2643 752 
Q 2906 1113 2906 1747 
Q 2906 2381 2643 2742 
Q 2381 3103 1925 3103 
Q 1469 3103 1208 2742 
Q 947 2381 947 1747 
z
" transform="scale(0.015625)"/>
      <path id="DejaVuSans-2f" d="M 1625 4666 
L 2156 4666 
L 531 -594 
L 0 -594 
L 1625 4666 
z
" transform="scale(0.015625)"/>
      <path id="DejaVuSans-70" d="M 1159 525 
L 1159 -1331 
L 581 -1331 
L 581 3500 
L 1159 3500 
L 1159 2969 
Q 1341 3281 1617 3432 
Q 1894 3584 2278 3584 
Q 2916 3584 3314 3078 
Q 3713 2572 3713 1747 
Q 3713 922 3314 415 
Q 2916 -91 2278 -91 
Q 1894 -91 1617 61 
Q 1341 213 1159 525 
z
M 3116 1747 
Q 3116 2381 2855 2742 
Q 2594 3103 2138 3103 
Q 1681 3103 1420 2742 
Q 1159 2381 1159 1747 
Q 1159 1113 1420 752 
Q 1681 391 2138 391 
Q 2594 391 2855 752 
Q 3116 1113 3116 1747 
z
" transform="scale(0.015625)"/>
      <path id="DejaVuSans-72" d="M 2631 2963 
Q 2534 3019 2420 3045 
Q 2306 3072 2169 3072 
Q 1681 3072 1420 2755 
Q 1159 2438 1159 1844 
L 1159 0 
L 581 0 
L 581 3500 
L 1159 3500 
L 1159 2956 
Q 1341 3275 1631 3429 
Q 1922 3584 2338 3584 
Q 2397 3584 2469 3576 
Q 2541 3569 2628 3553 
L 2631 2963 
z
" transform="scale(0.015625)"/>
      <path id="DejaVuSans-65" d="M 3597 1894 
L 3597 1613 
L 953 1613 
Q 991 1019 1311 708 
Q 1631 397 2203 397 
Q 2534 397 2845 478 
Q 3156 559 3463 722 
L 3463 178 
Q 3153 47 2828 -22 
Q 2503 -91 2169 -91 
Q 1331 -91 842 396 
Q 353 884 353 1716 
Q 353 2575 817 3079 
Q 1281 3584 2069 3584 
Q 2775 3584 3186 3129 
Q 3597 2675 3597 1894 
z
M 3022 2063 
Q 3016 2534 2758 2815 
Q 2500 3097 2075 3097 
Q 1594 3097 1305 2825 
Q 1016 2553 972 2059 
L 3022 2063 
z
" transform="scale(0.015625)"/>
      <path id="DejaVuSans-63" d="M 3122 3366 
L 3122 2828 
Q 2878 2963 2633 3030 
Q 2388 3097 2138 3097 
Q 1578 3097 1268 2742 
Q 959 2388 959 1747 
Q 959 1106 1268 751 
Q 1578 397 2138 397 
Q 2388 397 2633 464 
Q 2878 531 3122 666 
L 3122 134 
Q 2881 22 2623 -34 
Q 2366 -91 2075 -91 
Q 1284 -91 818 406 
Q 353 903 353 1747 
Q 353 2603 823 3093 
Q 1294 3584 2113 3584 
Q 2378 3584 2631 3529 
Q 2884 3475 3122 3366 
z
" transform="scale(0.015625)"/>
      <path id="DejaVuSans-73" d="M 2834 3397 
L 2834 2853 
Q 2591 2978 2328 3040 
Q 2066 3103 1784 3103 
Q 1356 3103 1142 2972 
Q 928 2841 928 2578 
Q 928 2378 1081 2264 
Q 1234 2150 1697 2047 
L 1894 2003 
Q 2506 1872 2764 1633 
Q 3022 1394 3022 966 
Q 3022 478 2636 193 
Q 2250 -91 1575 -91 
Q 1294 -91 989 -36 
Q 684 19 347 128 
L 347 722 
Q 666 556 975 473 
Q 1284 391 1588 391 
Q 1994 391 2212 530 
Q 2431 669 2431 922 
Q 2431 1156 2273 1281 
Q 2116 1406 1581 1522 
L 1381 1569 
Q 847 1681 609 1914 
Q 372 2147 372 2553 
Q 372 3047 722 3315 
Q 1072 3584 1716 3584 
Q 2034 3584 2315 3537 
Q 2597 3491 2834 3397 
z
" transform="scale(0.015625)"/>
      <path id="DejaVuSans-74" d="M 1172 4494 
L 1172 3500 
L 2356 3500 
L 2356 3053 
L 1172 3053 
L 1172 1153 
Q 1172 725 1289 603 
Q 1406 481 1766 481 
L 2356 481 
L 2356 0 
L 1766 0 
Q 1100 0 847 248 
Q 594 497 594 1153 
L 594 3053 
L 172 3053 
L 172 3500 
L 594 3500 
L 594 4494 
L 1172 4494 
z
" transform="scale(0.015625)"/>
     </defs>
     <use xlink:href="#DejaVuSans-2022"/>
     <use xlink:href="#DejaVuSans-20" transform="translate(58.984375 0)"/>
     <use xlink:href="#DejaVuSans-4c" transform="translate(90.771484 0)"/>
     <use xlink:href="#DejaVuSans-6f" transform="translate(144.734375 0)"/>
     <use xlink:href="#DejaVuSans-61" transform="translate(205.916016 0)"/>
     <use xlink:href="#DejaVuSans-64" transform="translate(267.195312 0)"/>
     <use xlink:href="#DejaVuSans-2f" transform="translate(330.671875 0)"/>
     <use xlink:href="#DejaVuSans-70" transform="translate(364.363281 0)"/>
     <use xlink:href="#DejaVuSans-72" transform="translate(427.839844 0)"/>
     <use xlink:href="#DejaVuSans-65" transform="translate(466.703125 0)"/>
     <use xlink:href="#DejaVuSans-70" transform="translate(528.226562 0)"/>
     <use xlink:href="#DejaVuSans-72" transform="translate(591.703125 0)"/>
     <use xlink:href="#DejaVuSans-6f" transform="translate(630.566406 0)"/>
     <use xlink:href="#DejaVuSans-63" transform="translate(691.748047 0)"/>
     <use xlink:href="#DejaVuSans-65" transform="translate(746.728516 0)"/>
     <use xlink:href="#DejaVuSans-73" transform="translate(808.251953 0)"/>
     <use xlink:href="#DejaVuSans-73" transform="translate(860.351562 0)"/>
     <use xlink:href="#DejaVuSans-20" transform="translate(912.451172 0)"/>
     <use xlink:href="#DejaVuSans-64" transform="translate(944.238281 0)"/>
     <use xlink:href="#DejaVuSans-61" transform="translate(1007.714844 0)"/>
     <use xlink:href="#DejaVuSans-74" transform="translate(1068.994141 0)"/>
     <use xlink:href="#DejaVuSans-61" transform="translate(1108.203125 0)"/>
    </g>
    <!-- • Batch management -->
    <g style="fill: #00bfff" transform="translate(151.883035 494.569502) scale(0.13 -0.13)">
     <defs>
      <path id="DejaVuSans-42" d="M 1259 2228 
L 1259 519 
L 2272 519 
Q 2781 519 3026 730 
Q 3272 941 3272 1375 
Q 3272 1813 3026 2020 
Q 2781 2228 2272 2228 
L 1259 2228 
z
M 1259 4147 
L 1259 2741 
L 2194 2741 
Q 2656 2741 2882 2914 
Q 3109 3088 3109 3444 
Q 3109 3797 2882 3972 
Q 2656 4147 2194 4147 
L 1259 4147 
z
M 628 4666 
L 2241 4666 
Q 2963 4666 3353 4366 
Q 3744 4066 3744 3513 
Q 3744 3084 3544 2831 
Q 3344 2578 2956 2516 
Q 3422 2416 3680 2098 
Q 3938 1781 3938 1306 
Q 3938 681 3513 340 
Q 3088 0 2303 0 
L 628 0 
L 628 4666 
z
" transform="scale(0.015625)"/>
      <path id="DejaVuSans-68" d="M 3513 2113 
L 3513 0 
L 2938 0 
L 2938 2094 
Q 2938 2591 2744 2837 
Q 2550 3084 2163 3084 
Q 1697 3084 1428 2787 
Q 1159 2491 1159 1978 
L 1159 0 
L 581 0 
L 581 4863 
L 1159 4863 
L 1159 2956 
Q 1366 3272 1645 3428 
Q 1925 3584 2291 3584 
Q 2894 3584 3203 3211 
Q 3513 2838 3513 2113 
z
" transform="scale(0.015625)"/>
      <path id="DejaVuSans-6d" d="M 3328 2828 
Q 3544 3216 3844 3400 
Q 4144 3584 4550 3584 
Q 5097 3584 5394 3201 
Q 5691 2819 5691 2113 
L 5691 0 
L 5113 0 
L 5113 2094 
Q 5113 2597 4934 2840 
Q 4756 3084 4391 3084 
Q 3944 3084 3684 2787 
Q 3425 2491 3425 1978 
L 3425 0 
L 2847 0 
L 2847 2094 
Q 2847 2600 2669 2842 
Q 2491 3084 2119 3084 
Q 1678 3084 1418 2786 
Q 1159 2488 1159 1978 
L 1159 0 
L 581 0 
L 581 3500 
L 1159 3500 
L 1159 2956 
Q 1356 3278 1631 3431 
Q 1906 3584 2284 3584 
Q 2666 3584 2933 3390 
Q 3200 3197 3328 2828 
z
" transform="scale(0.015625)"/>
      <path id="DejaVuSans-6e" d="M 3513 2113 
L 3513 0 
L 2938 0 
L 2938 2094 
Q 2938 2591 2744 2837 
Q 2550 3084 2163 3084 
Q 1697 3084 1428 2787 
Q 1159 2491 1159 1978 
L 1159 0 
L 581 0 
L 581 3500 
L 1159 3500 
L 1159 2956 
Q 1366 3272 1645 3428 
Q 1925 3584 2291 3584 
Q 2894 3584 3203 3211 
Q 3513 2838 3513 2113 
z
" transform="scale(0.015625)"/>
      <path id="DejaVuSans-67" d="M 2906 1791 
Q 2906 2416 2648 2759 
Q 2391 3103 1925 3103 
Q 1463 3103 1205 2759 
Q 947 2416 947 1791 
Q 947 1169 1205 825 
Q 1463 481 1925 481 
Q 2391 481 2648 825 
Q 2906 1169 2906 1791 
z
M 3481 434 
Q 3481 -459 3084 -895 
Q 2688 -1331 1869 -1331 
Q 1566 -1331 1297 -1286 
Q 1028 -1241 775 -1147 
L 775 -588 
Q 1028 -725 1275 -790 
Q 1522 -856 1778 -856 
Q 2344 -856 2625 -561 
Q 2906 -266 2906 331 
L 2906 616 
Q 2728 306 2450 153 
Q 2172 0 1784 0 
Q 1141 0 747 490 
Q 353 981 353 1791 
Q 353 2603 747 3093 
Q 1141 3584 1784 3584 
Q 2172 3584 2450 3431 
Q 2728 3278 2906 2969 
L 2906 3500 
L 3481 3500 
L 3481 434 
z
" transform="scale(0.015625)"/>
     </defs>
     <use xlink:href="#DejaVuSans-2022"/>
     <use xlink:href="#DejaVuSans-20" transform="translate(58.984375 0)"/>
     <use xlink:href="#DejaVuSans-42" transform="translate(90.771484 0)"/>
     <use xlink:href="#DejaVuSans-61" transform="translate(159.375 0)"/>
     <use xlink:href="#DejaVuSans-74" transform="translate(220.654297 0)"/>
     <use xlink:href="#DejaVuSans-63" transform="translate(259.863281 0)"/>
     <use xlink:href="#DejaVuSans-68" transform="translate(314.84375 0)"/>
     <use xlink:href="#DejaVuSans-20" transform="translate(378.222656 0)"/>
     <use xlink:href="#DejaVuSans-6d" transform="translate(410.009766 0)"/>
     <use xlink:href="#DejaVuSans-61" transform="translate(507.421875 0)"/>
     <use xlink:href="#DejaVuSans-6e" transform="translate(568.701172 0)"/>
     <use xlink:href="#DejaVuSans-61" transform="translate(632.080078 0)"/>
     <use xlink:href="#DejaVuSans-67" transform="translate(693.359375 0)"/>
     <use xlink:href="#DejaVuSans-65" transform="translate(756.835938 0)"/>
     <use xlink:href="#DejaVuSans-6d" transform="translate(818.359375 0)"/>
     <use xlink:href="#DejaVuSans-65" transform="translate(915.771484 0)"/>
     <use xlink:href="#DejaVuSans-6e" transform="translate(977.294922 0)"/>
     <use xlink:href="#DejaVuSans-74" transform="translate(1040.673828 0)"/>
    </g>
    <!-- • Data validation -->
    <g style="fill: #00bfff" transform="translate(166.587254 509.126658) scale(0.13 -0.13)">
     <defs>
      <path id="DejaVuSans-44" d="M 1259 4147 
L 1259 519 
L 2022 519 
Q 2988 519 3436 956 
Q 3884 1394 3884 2338 
Q 3884 3275 3436 3711 
Q 2988 4147 2022 4147 
L 1259 4147 
z
M 628 4666 
L 1925 4666 
Q 3281 4666 3915 4102 
Q 4550 3538 4550 2338 
Q 4550 1131 3912 565 
Q 3275 0 1925 0 
L 628 0 
L 628 4666 
z
" transform="scale(0.015625)"/>
      <path id="DejaVuSans-76" d="M 191 3500 
L 800 3500 
L 1894 563 
L 2988 3500 
L 3597 3500 
L 2284 0 
L 1503 0 
L 191 3500 
z
" transform="scale(0.015625)"/>
      <path id="DejaVuSans-6c" d="M 603 4863 
L 1178 4863 
L 1178 0 
L 603 0 
L 603 4863 
z
" transform="scale(0.015625)"/>
      <path id="DejaVuSans-69" d="M 603 3500 
L 1178 3500 
L 1178 0 
L 603 0 
L 603 3500 
z
M 603 4863 
L 1178 4863 
L 1178 4134 
L 603 4134 
L 603 4863 
z
" transform="scale(0.015625)"/>
     </defs>
     <use xlink:href="#DejaVuSans-2022"/>
     <use xlink:href="#DejaVuSans-20" transform="translate(58.984375 0)"/>
     <use xlink:href="#DejaVuSans-44" transform="translate(90.771484 0)"/>
     <use xlink:href="#DejaVuSans-61" transform="translate(167.773438 0)"/>
     <use xlink:href="#DejaVuSans-74" transform="translate(229.052734 0)"/>
     <use xlink:href="#DejaVuSans-61" transform="translate(268.261719 0)"/>
     <use xlink:href="#DejaVuSans-20" transform="translate(329.541016 0)"/>
     <use xlink:href="#DejaVuSans-76" transform="translate(361.328125 0)"/>
     <use xlink:href="#DejaVuSans-61" transform="translate(420.507812 0)"/>
     <use xlink:href="#DejaVuSans-6c" transform="translate(481.787109 0)"/>
     <use xlink:href="#DejaVuSans-69" transform="translate(509.570312 0)"/>
     <use xlink:href="#DejaVuSans-64" transform="translate(537.353516 0)"/>
     <use xlink:href="#DejaVuSans-61" transform="translate(600.830078 0)"/>
     <use xlink:href="#DejaVuSans-74" transform="translate(662.109375 0)"/>
     <use xlink:href="#DejaVuSans-69" transform="translate(701.318359 0)"/>
     <use xlink:href="#DejaVuSans-6f" transform="translate(729.101562 0)"/>
     <use xlink:href="#DejaVuSans-6e" transform="translate(790.283203 0)"/>
    </g>
   </g>
   <g id="text_12">
    <g id="patch_18">
     <path d="M 506.79851 544.518599 
L 653.60101 544.518599 
Q 661.40101 544.518599 661.40101 536.718599 
L 661.40101 495.022724 
Q 661.40101 487.222724 653.60101 487.222724 
L 506.79851 487.222724 
Q 498.99851 487.222724 498.99851 495.022724 
L 498.99851 536.718599 
Q 498.99851 544.518599 506.79851 544.518599 
z
" style="opacity: 0.85; stroke: #32cd32; stroke-linejoin: miter"/>
    </g>
    <!-- • Layer definitions -->
    <g style="fill: #32cd32" transform="translate(520.128588 504.900692) scale(0.13 -0.13)">
     <defs>
      <path id="DejaVuSans-79" d="M 2059 -325 
Q 1816 -950 1584 -1140 
Q 1353 -1331 966 -1331 
L 506 -1331 
L 506 -850 
L 844 -850 
Q 1081 -850 1212 -737 
Q 1344 -625 1503 -206 
L 1606 56 
L 191 3500 
L 800 3500 
L 1894 763 
L 2988 3500 
L 3597 3500 
L 2059 -325 
z
" transform="scale(0.015625)"/>
      <path id="DejaVuSans-66" d="M 2375 4863 
L 2375 4384 
L 1825 4384 
Q 1516 4384 1395 4259 
Q 1275 4134 1275 3809 
L 1275 3500 
L 2222 3500 
L 2222 3053 
L 1275 3053 
L 1275 0 
L 697 0 
L 697 3053 
L 147 3053 
L 147 3500 
L 697 3500 
L 697 3744 
Q 697 4328 969 4595 
Q 1241 4863 1831 4863 
L 2375 4863 
z
" transform="scale(0.015625)"/>
     </defs>
     <use xlink:href="#DejaVuSans-2022"/>
     <use xlink:href="#DejaVuSans-20" transform="translate(58.984375 0)"/>
     <use xlink:href="#DejaVuSans-4c" transform="translate(90.771484 0)"/>
     <use xlink:href="#DejaVuSans-61" transform="translate(146.484375 0)"/>
     <use xlink:href="#DejaVuSans-79" transform="translate(207.763672 0)"/>
     <use xlink:href="#DejaVuSans-65" transform="translate(266.943359 0)"/>
     <use xlink:href="#DejaVuSans-72" transform="translate(328.466797 0)"/>
     <use xlink:href="#DejaVuSans-20" transform="translate(369.580078 0)"/>
     <use xlink:href="#DejaVuSans-64" transform="translate(401.367188 0)"/>
     <use xlink:href="#DejaVuSans-65" transform="translate(464.84375 0)"/>
     <use xlink:href="#DejaVuSans-66" transform="translate(526.367188 0)"/>
     <use xlink:href="#DejaVuSans-69" transform="translate(561.572266 0)"/>
     <use xlink:href="#DejaVuSans-6e" transform="translate(589.355469 0)"/>
     <use xlink:href="#DejaVuSans-69" transform="translate(652.734375 0)"/>
     <use xlink:href="#DejaVuSans-74" transform="translate(680.517578 0)"/>
     <use xlink:href="#DejaVuSans-69" transform="translate(719.726562 0)"/>
     <use xlink:href="#DejaVuSans-6f" transform="translate(747.509766 0)"/>
     <use xlink:href="#DejaVuSans-6e" transform="translate(808.691406 0)"/>
     <use xlink:href="#DejaVuSans-73" transform="translate(872.070312 0)"/>
    </g>
    <!-- • Forward propagation -->
    <g style="fill: #32cd32" transform="translate(506.79851 519.457849) scale(0.13 -0.13)">
     <defs>
      <path id="DejaVuSans-46" d="M 628 4666 
L 3309 4666 
L 3309 4134 
L 1259 4134 
L 1259 2759 
L 3109 2759 
L 3109 2228 
L 1259 2228 
L 1259 0 
L 628 0 
L 628 4666 
z
" transform="scale(0.015625)"/>
      <path id="DejaVuSans-77" d="M 269 3500 
L 844 3500 
L 1563 769 
L 2278 3500 
L 2956 3500 
L 3675 769 
L 4391 3500 
L 4966 3500 
L 4050 0 
L 3372 0 
L 2619 2869 
L 1863 0 
L 1184 0 
L 269 3500 
z
" transform="scale(0.015625)"/>
     </defs>
     <use xlink:href="#DejaVuSans-2022"/>
     <use xlink:href="#DejaVuSans-20" transform="translate(58.984375 0)"/>
     <use xlink:href="#DejaVuSans-46" transform="translate(90.771484 0)"/>
     <use xlink:href="#DejaVuSans-6f" transform="translate(144.666016 0)"/>
     <use xlink:href="#DejaVuSans-72" transform="translate(205.847656 0)"/>
     <use xlink:href="#DejaVuSans-77" transform="translate(246.960938 0)"/>
     <use xlink:href="#DejaVuSans-61" transform="translate(328.748047 0)"/>
     <use xlink:href="#DejaVuSans-72" transform="translate(390.027344 0)"/>
     <use xlink:href="#DejaVuSans-64" transform="translate(429.390625 0)"/>
     <use xlink:href="#DejaVuSans-20" transform="translate(492.867188 0)"/>
     <use xlink:href="#DejaVuSans-70" transform="translate(524.654297 0)"/>
     <use xlink:href="#DejaVuSans-72" transform="translate(588.130859 0)"/>
     <use xlink:href="#DejaVuSans-6f" transform="translate(626.994141 0)"/>
     <use xlink:href="#DejaVuSans-70" transform="translate(688.175781 0)"/>
     <use xlink:href="#DejaVuSans-61" transform="translate(751.652344 0)"/>
     <use xlink:href="#DejaVuSans-67" transform="translate(812.931641 0)"/>
     <use xlink:href="#DejaVuSans-61" transform="translate(876.408203 0)"/>
     <use xlink:href="#DejaVuSans-74" transform="translate(937.6875 0)"/>
     <use xlink:href="#DejaVuSans-69" transform="translate(976.896484 0)"/>
     <use xlink:href="#DejaVuSans-6f" transform="translate(1004.679688 0)"/>
     <use xlink:href="#DejaVuSans-6e" transform="translate(1065.861328 0)"/>
    </g>
    <!-- • Model architecture -->
    <g style="fill: #32cd32" transform="translate(513.393979 534.015005) scale(0.13 -0.13)">
     <defs>
      <path id="DejaVuSans-4d" d="M 628 4666 
L 1569 4666 
L 2759 1491 
L 3956 4666 
L 4897 4666 
L 4897 0 
L 4281 0 
L 4281 4097 
L 3078 897 
L 2444 897 
L 1241 4097 
L 1241 0 
L 628 0 
L 628 4666 
z
" transform="scale(0.015625)"/>
      <path id="DejaVuSans-75" d="M 544 1381 
L 544 3500 
L 1119 3500 
L 1119 1403 
Q 1119 906 1312 657 
Q 1506 409 1894 409 
Q 2359 409 2629 706 
Q 2900 1003 2900 1516 
L 2900 3500 
L 3475 3500 
L 3475 0 
L 2900 0 
L 2900 538 
Q 2691 219 2414 64 
Q 2138 -91 1772 -91 
Q 1169 -91 856 284 
Q 544 659 544 1381 
z
M 1991 3584 
L 1991 3584 
z
" transform="scale(0.015625)"/>
     </defs>
     <use xlink:href="#DejaVuSans-2022"/>
     <use xlink:href="#DejaVuSans-20" transform="translate(58.984375 0)"/>
     <use xlink:href="#DejaVuSans-4d" transform="translate(90.771484 0)"/>
     <use xlink:href="#DejaVuSans-6f" transform="translate(177.050781 0)"/>
     <use xlink:href="#DejaVuSans-64" transform="translate(238.232422 0)"/>
     <use xlink:href="#DejaVuSans-65" transform="translate(301.708984 0)"/>
     <use xlink:href="#DejaVuSans-6c" transform="translate(363.232422 0)"/>
     <use xlink:href="#DejaVuSans-20" transform="translate(391.015625 0)"/>
     <use xlink:href="#DejaVuSans-61" transform="translate(422.802734 0)"/>
     <use xlink:href="#DejaVuSans-72" transform="translate(484.082031 0)"/>
     <use xlink:href="#DejaVuSans-63" transform="translate(522.945312 0)"/>
     <use xlink:href="#DejaVuSans-68" transform="translate(577.925781 0)"/>
     <use xlink:href="#DejaVuSans-69" transform="translate(641.304688 0)"/>
     <use xlink:href="#DejaVuSans-74" transform="translate(669.087891 0)"/>
     <use xlink:href="#DejaVuSans-65" transform="translate(708.296875 0)"/>
     <use xlink:href="#DejaVuSans-63" transform="translate(769.820312 0)"/>
     <use xlink:href="#DejaVuSans-74" transform="translate(824.800781 0)"/>
     <use xlink:href="#DejaVuSans-75" transform="translate(864.009766 0)"/>
     <use xlink:href="#DejaVuSans-72" transform="translate(927.388672 0)"/>
     <use xlink:href="#DejaVuSans-65" transform="translate(966.251953 0)"/>
    </g>
   </g>
   <g id="text_13">
    <g id="patch_19">
     <path d="M 860.957344 519.630252 
L 1015.691876 519.630252 
Q 1023.491876 519.630252 1023.491876 511.830252 
L 1023.491876 470.134377 
Q 1023.491876 462.334377 1015.691876 462.334377 
L 860.957344 462.334377 
Q 853.157344 462.334377 853.157344 470.134377 
L 853.157344 511.830252 
Q 853.157344 519.630252 860.957344 519.630252 
z
" style="opacity: 0.85; stroke: #ff8c00; stroke-linejoin: miter"/>
    </g>
    <!-- • Gradient computation -->
    <g style="fill: #ff8c00" transform="translate(860.957344 480.012346) scale(0.13 -0.13)">
     <defs>
      <path id="DejaVuSans-47" d="M 3809 666 
L 3809 1919 
L 2778 1919 
L 2778 2438 
L 4434 2438 
L 4434 434 
Q 4069 175 3628 42 
Q 3188 -91 2688 -91 
Q 1594 -91 976 548 
Q 359 1188 359 2328 
Q 359 3472 976 4111 
Q 1594 4750 2688 4750 
Q 3144 4750 3555 4637 
Q 3966 4525 4313 4306 
L 4313 3634 
Q 3963 3931 3569 4081 
Q 3175 4231 2741 4231 
Q 1884 4231 1454 3753 
Q 1025 3275 1025 2328 
Q 1025 1384 1454 906 
Q 1884 428 2741 428 
Q 3075 428 3337 486 
Q 3600 544 3809 666 
z
" transform="scale(0.015625)"/>
     </defs>
     <use xlink:href="#DejaVuSans-2022"/>
     <use xlink:href="#DejaVuSans-20" transform="translate(58.984375 0)"/>
     <use xlink:href="#DejaVuSans-47" transform="translate(90.771484 0)"/>
     <use xlink:href="#DejaVuSans-72" transform="translate(168.261719 0)"/>
     <use xlink:href="#DejaVuSans-61" transform="translate(209.375 0)"/>
     <use xlink:href="#DejaVuSans-64" transform="translate(270.654297 0)"/>
     <use xlink:href="#DejaVuSans-69" transform="translate(334.130859 0)"/>
     <use xlink:href="#DejaVuSans-65" transform="translate(361.914062 0)"/>
     <use xlink:href="#DejaVuSans-6e" transform="translate(423.4375 0)"/>
     <use xlink:href="#DejaVuSans-74" transform="translate(486.816406 0)"/>
     <use xlink:href="#DejaVuSans-20" transform="translate(526.025391 0)"/>
     <use xlink:href="#DejaVuSans-63" transform="translate(557.8125 0)"/>
     <use xlink:href="#DejaVuSans-6f" transform="translate(612.792969 0)"/>
     <use xlink:href="#DejaVuSans-6d" transform="translate(673.974609 0)"/>
     <use xlink:href="#DejaVuSans-70" transform="translate(771.386719 0)"/>
     <use xlink:href="#DejaVuSans-75" transform="translate(834.863281 0)"/>
     <use xlink:href="#DejaVuSans-74" transform="translate(898.242188 0)"/>
     <use xlink:href="#DejaVuSans-61" transform="translate(937.451172 0)"/>
     <use xlink:href="#DejaVuSans-74" transform="translate(998.730469 0)"/>
     <use xlink:href="#DejaVuSans-69" transform="translate(1037.939453 0)"/>
     <use xlink:href="#DejaVuSans-6f" transform="translate(1065.722656 0)"/>
     <use xlink:href="#DejaVuSans-6e" transform="translate(1126.904297 0)"/>
    </g>
    <!-- • Backpropagation -->
    <g style="fill: #ff8c00" transform="translate(877.344454 494.569502) scale(0.13 -0.13)">
     <defs>
      <path id="DejaVuSans-6b" d="M 581 4863 
L 1159 4863 
L 1159 1991 
L 2875 3500 
L 3609 3500 
L 1753 1863 
L 3688 0 
L 2938 0 
L 1159 1709 
L 1159 0 
L 581 0 
L 581 4863 
z
" transform="scale(0.015625)"/>
     </defs>
     <use xlink:href="#DejaVuSans-2022"/>
     <use xlink:href="#DejaVuSans-20" transform="translate(58.984375 0)"/>
     <use xlink:href="#DejaVuSans-42" transform="translate(90.771484 0)"/>
     <use xlink:href="#DejaVuSans-61" transform="translate(159.375 0)"/>
     <use xlink:href="#DejaVuSans-63" transform="translate(220.654297 0)"/>
     <use xlink:href="#DejaVuSans-6b" transform="translate(275.634766 0)"/>
     <use xlink:href="#DejaVuSans-70" transform="translate(333.544922 0)"/>
     <use xlink:href="#DejaVuSans-72" transform="translate(397.021484 0)"/>
     <use xlink:href="#DejaVuSans-6f" transform="translate(435.884766 0)"/>
     <use xlink:href="#DejaVuSans-70" transform="translate(497.066406 0)"/>
     <use xlink:href="#DejaVuSans-61" transform="translate(560.542969 0)"/>
     <use xlink:href="#DejaVuSans-67" transform="translate(621.822266 0)"/>
     <use xlink:href="#DejaVuSans-61" transform="translate(685.298828 0)"/>
     <use xlink:href="#DejaVuSans-74" transform="translate(746.578125 0)"/>
     <use xlink:href="#DejaVuSans-69" transform="translate(785.787109 0)"/>
     <use xlink:href="#DejaVuSans-6f" transform="translate(813.570312 0)"/>
     <use xlink:href="#DejaVuSans-6e" transform="translate(874.751953 0)"/>
    </g>
    <!-- • Parameter updates -->
    <g style="fill: #ff8c00" transform="translate(870.25336 509.126658) scale(0.13 -0.13)">
     <defs>
      <path id="DejaVuSans-50" d="M 1259 4147 
L 1259 2394 
L 2053 2394 
Q 2494 2394 2734 2622 
Q 2975 2850 2975 3272 
Q 2975 3691 2734 3919 
Q 2494 4147 2053 4147 
L 1259 4147 
z
M 628 4666 
L 2053 4666 
Q 2838 4666 3239 4311 
Q 3641 3956 3641 3272 
Q 3641 2581 3239 2228 
Q 2838 1875 2053 1875 
L 1259 1875 
L 1259 0 
L 628 0 
L 628 4666 
z
" transform="scale(0.015625)"/>
     </defs>
     <use xlink:href="#DejaVuSans-2022"/>
     <use xlink:href="#DejaVuSans-20" transform="translate(58.984375 0)"/>
     <use xlink:href="#DejaVuSans-50" transform="translate(90.771484 0)"/>
     <use xlink:href="#DejaVuSans-61" transform="translate(146.574219 0)"/>
     <use xlink:href="#DejaVuSans-72" transform="translate(207.853516 0)"/>
     <use xlink:href="#DejaVuSans-61" transform="translate(248.966797 0)"/>
     <use xlink:href="#DejaVuSans-6d" transform="translate(310.246094 0)"/>
     <use xlink:href="#DejaVuSans-65" transform="translate(407.658203 0)"/>
     <use xlink:href="#DejaVuSans-74" transform="translate(469.181641 0)"/>
     <use xlink:href="#DejaVuSans-65" transform="translate(508.390625 0)"/>
     <use xlink:href="#DejaVuSans-72" transform="translate(569.914062 0)"/>
     <use xlink:href="#DejaVuSans-20" transform="translate(611.027344 0)"/>
     <use xlink:href="#DejaVuSans-75" transform="translate(642.814453 0)"/>
     <use xlink:href="#DejaVuSans-70" transform="translate(706.193359 0)"/>
     <use xlink:href="#DejaVuSans-64" transform="translate(769.669922 0)"/>
     <use xlink:href="#DejaVuSans-61" transform="translate(833.146484 0)"/>
     <use xlink:href="#DejaVuSans-74" transform="translate(894.425781 0)"/>
     <use xlink:href="#DejaVuSans-65" transform="translate(933.634766 0)"/>
     <use xlink:href="#DejaVuSans-73" transform="translate(995.158203 0)"/>
    </g>
   </g>
   <g id="text_14">
    <g id="patch_20">
     <path d="M 520.804994 706.292851 
L 639.594526 706.292851 
Q 647.394526 706.292851 647.394526 698.492851 
L 647.394526 656.796976 
Q 647.394526 648.996976 639.594526 648.996976 
L 520.804994 648.996976 
Q 513.004994 648.996976 513.004994 656.796976 
L 513.004994 698.492851 
Q 513.004994 706.292851 520.804994 706.292851 
z
" style="opacity: 0.85; stroke: #ba55d3; stroke-linejoin: miter"/>
    </g>
    <!-- • Math operations -->
    <g style="fill: #ba55d3" transform="translate(521.379838 666.674945) scale(0.13 -0.13)">
     <use xlink:href="#DejaVuSans-2022"/>
     <use xlink:href="#DejaVuSans-20" transform="translate(58.984375 0)"/>
     <use xlink:href="#DejaVuSans-4d" transform="translate(90.771484 0)"/>
     <use xlink:href="#DejaVuSans-61" transform="translate(177.050781 0)"/>
     <use xlink:href="#DejaVuSans-74" transform="translate(238.330078 0)"/>
     <use xlink:href="#DejaVuSans-68" transform="translate(277.539062 0)"/>
     <use xlink:href="#DejaVuSans-20" transform="translate(340.917969 0)"/>
     <use xlink:href="#DejaVuSans-6f" transform="translate(372.705078 0)"/>
     <use xlink:href="#DejaVuSans-70" transform="translate(433.886719 0)"/>
     <use xlink:href="#DejaVuSans-65" transform="translate(497.363281 0)"/>
     <use xlink:href="#DejaVuSans-72" transform="translate(558.886719 0)"/>
     <use xlink:href="#DejaVuSans-61" transform="translate(600 0)"/>
     <use xlink:href="#DejaVuSans-74" transform="translate(661.279297 0)"/>
     <use xlink:href="#DejaVuSans-69" transform="translate(700.488281 0)"/>
     <use xlink:href="#DejaVuSans-6f" transform="translate(728.271484 0)"/>
     <use xlink:href="#DejaVuSans-6e" transform="translate(789.453125 0)"/>
     <use xlink:href="#DejaVuSans-73" transform="translate(852.832031 0)"/>
    </g>
    <!-- • Visualization -->
    <g style="fill: #ba55d3" transform="translate(533.248432 681.232101) scale(0.13 -0.13)">
     <defs>
      <path id="DejaVuSans-56" d="M 1831 0 
L 50 4666 
L 709 4666 
L 2188 738 
L 3669 4666 
L 4325 4666 
L 2547 0 
L 1831 0 
z
" transform="scale(0.015625)"/>
      <path id="DejaVuSans-7a" d="M 353 3500 
L 3084 3500 
L 3084 2975 
L 922 459 
L 3084 459 
L 3084 0 
L 275 0 
L 275 525 
L 2438 3041 
L 353 3041 
L 353 3500 
z
" transform="scale(0.015625)"/>
     </defs>
     <use xlink:href="#DejaVuSans-2022"/>
     <use xlink:href="#DejaVuSans-20" transform="translate(58.984375 0)"/>
     <use xlink:href="#DejaVuSans-56" transform="translate(90.771484 0)"/>
     <use xlink:href="#DejaVuSans-69" transform="translate(156.929688 0)"/>
     <use xlink:href="#DejaVuSans-73" transform="translate(184.712891 0)"/>
     <use xlink:href="#DejaVuSans-75" transform="translate(236.8125 0)"/>
     <use xlink:href="#DejaVuSans-61" transform="translate(300.191406 0)"/>
     <use xlink:href="#DejaVuSans-6c" transform="translate(361.470703 0)"/>
     <use xlink:href="#DejaVuSans-69" transform="translate(389.253906 0)"/>
     <use xlink:href="#DejaVuSans-7a" transform="translate(417.037109 0)"/>
     <use xlink:href="#DejaVuSans-61" transform="translate(469.527344 0)"/>
     <use xlink:href="#DejaVuSans-74" transform="translate(530.806641 0)"/>
     <use xlink:href="#DejaVuSans-69" transform="translate(570.015625 0)"/>
     <use xlink:href="#DejaVuSans-6f" transform="translate(597.798828 0)"/>
     <use xlink:href="#DejaVuSans-6e" transform="translate(658.980469 0)"/>
    </g>
    <!-- • Helper functions -->
    <g style="fill: #ba55d3" transform="translate(520.804994 695.789257) scale(0.13 -0.13)">
     <defs>
      <path id="DejaVuSans-48" d="M 628 4666 
L 1259 4666 
L 1259 2753 
L 3553 2753 
L 3553 4666 
L 4184 4666 
L 4184 0 
L 3553 0 
L 3553 2222 
L 1259 2222 
L 1259 0 
L 628 0 
L 628 4666 
z
" transform="scale(0.015625)"/>
     </defs>
     <use xlink:href="#DejaVuSans-2022"/>
     <use xlink:href="#DejaVuSans-20" transform="translate(58.984375 0)"/>
     <use xlink:href="#DejaVuSans-48" transform="translate(90.771484 0)"/>
     <use xlink:href="#DejaVuSans-65" transform="translate(165.966797 0)"/>
     <use xlink:href="#DejaVuSans-6c" transform="translate(227.490234 0)"/>
     <use xlink:href="#DejaVuSans-70" transform="translate(255.273438 0)"/>
     <use xlink:href="#DejaVuSans-65" transform="translate(318.75 0)"/>
     <use xlink:href="#DejaVuSans-72" transform="translate(380.273438 0)"/>
     <use xlink:href="#DejaVuSans-20" transform="translate(421.386719 0)"/>
     <use xlink:href="#DejaVuSans-66" transform="translate(453.173828 0)"/>
     <use xlink:href="#DejaVuSans-75" transform="translate(488.378906 0)"/>
     <use xlink:href="#DejaVuSans-6e" transform="translate(551.757812 0)"/>
     <use xlink:href="#DejaVuSans-63" transform="translate(615.136719 0)"/>
     <use xlink:href="#DejaVuSans-74" transform="translate(670.117188 0)"/>
     <use xlink:href="#DejaVuSans-69" transform="translate(709.326172 0)"/>
     <use xlink:href="#DejaVuSans-6f" transform="translate(737.109375 0)"/>
     <use xlink:href="#DejaVuSans-6e" transform="translate(798.291016 0)"/>
     <use xlink:href="#DejaVuSans-73" transform="translate(861.669922 0)"/>
    </g>
   </g>
   <g id="text_15">
    <g id="patch_21">
     <path d="M 518.527963 127.638794 
L 641.871557 127.638794 
Q 649.671557 127.638794 649.671557 119.838794 
L 649.671557 78.142919 
Q 649.671557 70.342919 641.871557 70.342919 
L 518.527963 70.342919 
Q 510.727963 70.342919 510.727963 78.142919 
L 510.727963 119.838794 
Q 510.727963 127.638794 518.527963 127.638794 
z
" style="opacity: 0.85; stroke: #ff4500; stroke-linejoin: miter"/>
    </g>
    <!-- • Training loops -->
    <g style="fill: #ff4500" transform="translate(529.317963 88.020888) scale(0.13 -0.13)">
     <defs>
      <path id="DejaVuSans-54" d="M -19 4666 
L 3928 4666 
L 3928 4134 
L 2272 4134 
L 2272 0 
L 1638 0 
L 1638 4134 
L -19 4134 
L -19 4666 
z
" transform="scale(0.015625)"/>
     </defs>
     <use xlink:href="#DejaVuSans-2022"/>
     <use xlink:href="#DejaVuSans-20" transform="translate(58.984375 0)"/>
     <use xlink:href="#DejaVuSans-54" transform="translate(90.771484 0)"/>
     <use xlink:href="#DejaVuSans-72" transform="translate(137.105469 0)"/>
     <use xlink:href="#DejaVuSans-61" transform="translate(178.21875 0)"/>
     <use xlink:href="#DejaVuSans-69" transform="translate(239.498047 0)"/>
     <use xlink:href="#DejaVuSans-6e" transform="translate(267.28125 0)"/>
     <use xlink:href="#DejaVuSans-69" transform="translate(330.660156 0)"/>
     <use xlink:href="#DejaVuSans-6e" transform="translate(358.443359 0)"/>
     <use xlink:href="#DejaVuSans-67" transform="translate(421.822266 0)"/>
     <use xlink:href="#DejaVuSans-20" transform="translate(485.298828 0)"/>
     <use xlink:href="#DejaVuSans-6c" transform="translate(517.085938 0)"/>
     <use xlink:href="#DejaVuSans-6f" transform="translate(544.869141 0)"/>
     <use xlink:href="#DejaVuSans-6f" transform="translate(606.050781 0)"/>
     <use xlink:href="#DejaVuSans-70" transform="translate(667.232422 0)"/>
     <use xlink:href="#DejaVuSans-73" transform="translate(730.708984 0)"/>
    </g>
    <!-- • Optimization -->
    <g style="fill: #ff4500" transform="translate(532.720307 102.578044) scale(0.13 -0.13)">
     <defs>
      <path id="DejaVuSans-4f" d="M 2522 4238 
Q 1834 4238 1429 3725 
Q 1025 3213 1025 2328 
Q 1025 1447 1429 934 
Q 1834 422 2522 422 
Q 3209 422 3611 934 
Q 4013 1447 4013 2328 
Q 4013 3213 3611 3725 
Q 3209 4238 2522 4238 
z
M 2522 4750 
Q 3503 4750 4090 4092 
Q 4678 3434 4678 2328 
Q 4678 1225 4090 567 
Q 3503 -91 2522 -91 
Q 1538 -91 948 565 
Q 359 1222 359 2328 
Q 359 3434 948 4092 
Q 1538 4750 2522 4750 
z
" transform="scale(0.015625)"/>
     </defs>
     <use xlink:href="#DejaVuSans-2022"/>
     <use xlink:href="#DejaVuSans-20" transform="translate(58.984375 0)"/>
     <use xlink:href="#DejaVuSans-4f" transform="translate(90.771484 0)"/>
     <use xlink:href="#DejaVuSans-70" transform="translate(169.482422 0)"/>
     <use xlink:href="#DejaVuSans-74" transform="translate(232.958984 0)"/>
     <use xlink:href="#DejaVuSans-69" transform="translate(272.167969 0)"/>
     <use xlink:href="#DejaVuSans-6d" transform="translate(299.951172 0)"/>
     <use xlink:href="#DejaVuSans-69" transform="translate(397.363281 0)"/>
     <use xlink:href="#DejaVuSans-7a" transform="translate(425.146484 0)"/>
     <use xlink:href="#DejaVuSans-61" transform="translate(477.636719 0)"/>
     <use xlink:href="#DejaVuSans-74" transform="translate(538.916016 0)"/>
     <use xlink:href="#DejaVuSans-69" transform="translate(578.125 0)"/>
     <use xlink:href="#DejaVuSans-6f" transform="translate(605.908203 0)"/>
     <use xlink:href="#DejaVuSans-6e" transform="translate(667.089844 0)"/>
    </g>
    <!-- • Model evaluation -->
    <g style="fill: #ff4500" transform="translate(518.527963 117.1352) scale(0.13 -0.13)">
     <use xlink:href="#DejaVuSans-2022"/>
     <use xlink:href="#DejaVuSans-20" transform="translate(58.984375 0)"/>
     <use xlink:href="#DejaVuSans-4d" transform="translate(90.771484 0)"/>
     <use xlink:href="#DejaVuSans-6f" transform="translate(177.050781 0)"/>
     <use xlink:href="#DejaVuSans-64" transform="translate(238.232422 0)"/>
     <use xlink:href="#DejaVuSans-65" transform="translate(301.708984 0)"/>
     <use xlink:href="#DejaVuSans-6c" transform="translate(363.232422 0)"/>
     <use xlink:href="#DejaVuSans-20" transform="translate(391.015625 0)"/>
     <use xlink:href="#DejaVuSans-65" transform="translate(422.802734 0)"/>
     <use xlink:href="#DejaVuSans-76" transform="translate(484.326172 0)"/>
     <use xlink:href="#DejaVuSans-61" transform="translate(543.505859 0)"/>
     <use xlink:href="#DejaVuSans-6c" transform="translate(604.785156 0)"/>
     <use xlink:href="#DejaVuSans-75" transform="translate(632.568359 0)"/>
     <use xlink:href="#DejaVuSans-61" transform="translate(695.947266 0)"/>
     <use xlink:href="#DejaVuSans-74" transform="translate(757.226562 0)"/>
     <use xlink:href="#DejaVuSans-69" transform="translate(796.435547 0)"/>
     <use xlink:href="#DejaVuSans-6f" transform="translate(824.21875 0)"/>
     <use xlink:href="#DejaVuSans-6e" transform="translate(885.400391 0)"/>
    </g>
   </g>
   <g id="text_16">
    <!-- Neural Network Engine Architecture Overview -->
    <g style="fill: #ffffff" transform="translate(267.822885 25.43625) scale(0.24 -0.24)">
     <defs>
      <path id="DejaVuSans-Bold-45" d="M 588 4666 
L 3834 4666 
L 3834 3756 
L 1791 3756 
L 1791 2888 
L 3713 2888 
L 3713 1978 
L 1791 1978 
L 1791 909 
L 3903 909 
L 3903 0 
L 588 0 
L 588 4666 
z
" transform="scale(0.015625)"/>
      <path id="DejaVuSans-Bold-68" d="M 4056 2131 
L 4056 0 
L 2931 0 
L 2931 347 
L 2931 1625 
Q 2931 2084 2911 2256 
Q 2891 2428 2841 2509 
Q 2775 2619 2662 2680 
Q 2550 2741 2406 2741 
Q 2056 2741 1856 2470 
Q 1656 2200 1656 1722 
L 1656 0 
L 538 0 
L 538 4863 
L 1656 4863 
L 1656 2988 
Q 1909 3294 2193 3439 
Q 2478 3584 2822 3584 
Q 3428 3584 3742 3212 
Q 4056 2841 4056 2131 
z
" transform="scale(0.015625)"/>
      <path id="DejaVuSans-Bold-4f" d="M 2719 3878 
Q 2169 3878 1866 3472 
Q 1563 3066 1563 2328 
Q 1563 1594 1866 1187 
Q 2169 781 2719 781 
Q 3272 781 3575 1187 
Q 3878 1594 3878 2328 
Q 3878 3066 3575 3472 
Q 3272 3878 2719 3878 
z
M 2719 4750 
Q 3844 4750 4481 4106 
Q 5119 3463 5119 2328 
Q 5119 1197 4481 553 
Q 3844 -91 2719 -91 
Q 1597 -91 958 553 
Q 319 1197 319 2328 
Q 319 3463 958 4106 
Q 1597 4750 2719 4750 
z
" transform="scale(0.015625)"/>
      <path id="DejaVuSans-Bold-76" d="M 97 3500 
L 1216 3500 
L 2088 1081 
L 2956 3500 
L 4078 3500 
L 2700 0 
L 1472 0 
L 97 3500 
z
" transform="scale(0.015625)"/>
     </defs>
     <use xlink:href="#DejaVuSans-Bold-4e"/>
     <use xlink:href="#DejaVuSans-Bold-65" transform="translate(83.691406 0)"/>
     <use xlink:href="#DejaVuSans-Bold-75" transform="translate(151.513672 0)"/>
     <use xlink:href="#DejaVuSans-Bold-72" transform="translate(222.705078 0)"/>
     <use xlink:href="#DejaVuSans-Bold-61" transform="translate(272.021484 0)"/>
     <use xlink:href="#DejaVuSans-Bold-6c" transform="translate(339.501953 0)"/>
     <use xlink:href="#DejaVuSans-Bold-20" transform="translate(373.779297 0)"/>
     <use xlink:href="#DejaVuSans-Bold-4e" transform="translate(408.59375 0)"/>
     <use xlink:href="#DejaVuSans-Bold-65" transform="translate(492.285156 0)"/>
     <use xlink:href="#DejaVuSans-Bold-74" transform="translate(560.107422 0)"/>
     <use xlink:href="#DejaVuSans-Bold-77" transform="translate(607.910156 0)"/>
     <use xlink:href="#DejaVuSans-Bold-6f" transform="translate(700.292969 0)"/>
     <use xlink:href="#DejaVuSans-Bold-72" transform="translate(768.994141 0)"/>
     <use xlink:href="#DejaVuSans-Bold-6b" transform="translate(818.310547 0)"/>
     <use xlink:href="#DejaVuSans-Bold-20" transform="translate(884.814453 0)"/>
     <use xlink:href="#DejaVuSans-Bold-45" transform="translate(919.628906 0)"/>
     <use xlink:href="#DejaVuSans-Bold-6e" transform="translate(987.939453 0)"/>
     <use xlink:href="#DejaVuSans-Bold-67" transform="translate(1059.130859 0)"/>
     <use xlink:href="#DejaVuSans-Bold-69" transform="translate(1130.712891 0)"/>
     <use xlink:href="#DejaVuSans-Bold-6e" transform="translate(1164.990234 0)"/>
     <use xlink:href="#DejaVuSans-Bold-65" transform="translate(1236.181641 0)"/>
     <use xlink:href="#DejaVuSans-Bold-20" transform="translate(1304.003906 0)"/>
     <use xlink:href="#DejaVuSans-Bold-41" transform="translate(1338.818359 0)"/>
     <use xlink:href="#DejaVuSans-Bold-72" transform="translate(1416.210938 0)"/>
     <use xlink:href="#DejaVuSans-Bold-63" transform="translate(1465.527344 0)"/>
     <use xlink:href="#DejaVuSans-Bold-68" transform="translate(1524.804688 0)"/>
     <use xlink:href="#DejaVuSans-Bold-69" transform="translate(1595.996094 0)"/>
     <use xlink:href="#DejaVuSans-Bold-74" transform="translate(1630.273438 0)"/>
     <use xlink:href="#DejaVuSans-Bold-65" transform="translate(1678.076172 0)"/>
     <use xlink:href="#DejaVuSans-Bold-63" transform="translate(1745.898438 0)"/>
     <use xlink:href="#DejaVuSans-Bold-74" transform="translate(1805.175781 0)"/>
     <use xlink:href="#DejaVuSans-Bold-75" transform="translate(1852.978516 0)"/>
     <use xlink:href="#DejaVuSans-Bold-72" transform="translate(1924.169922 0)"/>
     <use xlink:href="#DejaVuSans-Bold-65" transform="translate(1973.486328 0)"/>
     <use xlink:href="#DejaVuSans-Bold-20" transform="translate(2041.308594 0)"/>
     <use xlink:href="#DejaVuSans-Bold-4f" transform="translate(2076.123047 0)"/>
     <use xlink:href="#DejaVuSans-Bold-76" transform="translate(2161.132812 0)"/>
     <use xlink:href="#DejaVuSans-Bold-65" transform="translate(2226.318359 0)"/>
     <use xlink:href="#DejaVuSans-Bold-72" transform="translate(2294.140625 0)"/>
     <use xlink:href="#DejaVuSans-Bold-76" transform="translate(2343.457031 0)"/>
     <use xlink:href="#DejaVuSans-Bold-69" transform="translate(2408.642578 0)"/>
     <use xlink:href="#DejaVuSans-Bold-65" transform="translate(2442.919922 0)"/>
     <use xlink:href="#DejaVuSans-Bold-77" transform="translate(2510.742188 0)"/>
    </g>
   </g>
   <g id="legend_1">
    <g id="line2d_1">
     <path d="M 19.8 73.774062 
L 33.8 73.774062 
L 47.8 73.774062 
" style="fill: none; stroke: #00bfff; stroke-width: 4; stroke-linecap: square"/>
    </g>
    <g id="text_17">
     <!-- Data Flow → -->
     <g style="fill: #ffffff" transform="translate(59 78.674062) scale(0.14 -0.14)">
      <defs>
       <path id="DejaVuSans-2192" d="M 5050 2147 
L 5050 1866 
L 3822 638 
L 3447 1013 
L 4175 1741 
L 366 1741 
L 366 2272 
L 4175 2272 
L 3447 3000 
L 3822 3375 
L 5050 2147 
z
" transform="scale(0.015625)"/>
      </defs>
      <use xlink:href="#DejaVuSans-44"/>
      <use xlink:href="#DejaVuSans-61" transform="translate(77.001953 0)"/>
      <use xlink:href="#DejaVuSans-74" transform="translate(138.28125 0)"/>
      <use xlink:href="#DejaVuSans-61" transform="translate(177.490234 0)"/>
      <use xlink:href="#DejaVuSans-20" transform="translate(238.769531 0)"/>
      <use xlink:href="#DejaVuSans-46" transform="translate(270.556641 0)"/>
      <use xlink:href="#DejaVuSans-6c" transform="translate(328.076172 0)"/>
      <use xlink:href="#DejaVuSans-6f" transform="translate(355.859375 0)"/>
      <use xlink:href="#DejaVuSans-77" transform="translate(417.041016 0)"/>
      <use xlink:href="#DejaVuSans-20" transform="translate(498.828125 0)"/>
      <use xlink:href="#DejaVuSans-2192" transform="translate(530.615234 0)"/>
     </g>
    </g>
    <g id="line2d_2">
     <path d="M 19.8 94.323437 
L 33.8 94.323437 
L 47.8 94.323437 
" style="fill: none; stroke: #ff4500; stroke-width: 4; stroke-linecap: square"/>
    </g>
    <g id="text_18">
     <!-- ← Gradient Flow -->
     <g style="fill: #ffffff" transform="translate(59 99.223437) scale(0.14 -0.14)">
      <defs>
       <path id="DejaVuSans-2190" d="M 313 1866 
L 313 2147 
L 1541 3375 
L 1916 3000 
L 1188 2272 
L 4997 2272 
L 4997 1741 
L 1188 1741 
L 1916 1013 
L 1541 638 
L 313 1866 
z
" transform="scale(0.015625)"/>
      </defs>
      <use xlink:href="#DejaVuSans-2190"/>
      <use xlink:href="#DejaVuSans-20" transform="translate(83.789062 0)"/>
      <use xlink:href="#DejaVuSans-47" transform="translate(115.576172 0)"/>
      <use xlink:href="#DejaVuSans-72" transform="translate(193.066406 0)"/>
      <use xlink:href="#DejaVuSans-61" transform="translate(234.179688 0)"/>
      <use xlink:href="#DejaVuSans-64" transform="translate(295.458984 0)"/>
      <use xlink:href="#DejaVuSans-69" transform="translate(358.935547 0)"/>
      <use xlink:href="#DejaVuSans-65" transform="translate(386.71875 0)"/>
      <use xlink:href="#DejaVuSans-6e" transform="translate(448.242188 0)"/>
      <use xlink:href="#DejaVuSans-74" transform="translate(511.621094 0)"/>
      <use xlink:href="#DejaVuSans-20" transform="translate(550.830078 0)"/>
      <use xlink:href="#DejaVuSans-46" transform="translate(582.617188 0)"/>
      <use xlink:href="#DejaVuSans-6c" transform="translate(640.136719 0)"/>
      <use xlink:href="#DejaVuSans-6f" transform="translate(667.919922 0)"/>
      <use xlink:href="#DejaVuSans-77" transform="translate(729.101562 0)"/>
     </g>
    </g>
    <g id="line2d_3">
     <path d="M 19.8 114.872812 
L 33.8 114.872812 
L 47.8 114.872812 
" style="fill: none; stroke: #32cd32; stroke-width: 4; stroke-linecap: square"/>
    </g>
    <g id="text_19">
     <!-- ↕ Control Flow -->
     <g style="fill: #ffffff" transform="translate(59 119.772812) scale(0.14 -0.14)">
      <defs>
       <path id="DejaVuSans-2195" d="M 2541 4688 
L 2822 4688 
L 4047 3456 
L 3672 3081 
L 2947 3813 
L 2947 822 
L 3672 1553 
L 4047 1178 
L 2822 -53 
L 2541 -53 
L 1309 1178 
L 1684 1553 
L 2416 822 
L 2416 3813 
L 1684 3081 
L 1309 3456 
L 2541 4688 
z
" transform="scale(0.015625)"/>
       <path id="DejaVuSans-43" d="M 4122 4306 
L 4122 3641 
Q 3803 3938 3442 4084 
Q 3081 4231 2675 4231 
Q 1875 4231 1450 3742 
Q 1025 3253 1025 2328 
Q 1025 1406 1450 917 
Q 1875 428 2675 428 
Q 3081 428 3442 575 
Q 3803 722 4122 1019 
L 4122 359 
Q 3791 134 3420 21 
Q 3050 -91 2638 -91 
Q 1578 -91 968 557 
Q 359 1206 359 2328 
Q 359 3453 968 4101 
Q 1578 4750 2638 4750 
Q 3056 4750 3426 4639 
Q 3797 4528 4122 4306 
z
" transform="scale(0.015625)"/>
      </defs>
      <use xlink:href="#DejaVuSans-2195"/>
      <use xlink:href="#DejaVuSans-20" transform="translate(83.789062 0)"/>
      <use xlink:href="#DejaVuSans-43" transform="translate(115.576172 0)"/>
      <use xlink:href="#DejaVuSans-6f" transform="translate(185.400391 0)"/>
      <use xlink:href="#DejaVuSans-6e" transform="translate(246.582031 0)"/>
      <use xlink:href="#DejaVuSans-74" transform="translate(309.960938 0)"/>
      <use xlink:href="#DejaVuSans-72" transform="translate(349.169922 0)"/>
      <use xlink:href="#DejaVuSans-6f" transform="translate(388.033203 0)"/>
      <use xlink:href="#DejaVuSans-6c" transform="translate(449.214844 0)"/>
      <use xlink:href="#DejaVuSans-20" transform="translate(476.998047 0)"/>
      <use xlink:href="#DejaVuSans-46" transform="translate(508.785156 0)"/>
      <use xlink:href="#DejaVuSans-6c" transform="translate(566.304688 0)"/>
      <use xlink:href="#DejaVuSans-6f" transform="translate(594.087891 0)"/>
      <use xlink:href="#DejaVuSans-77" transform="translate(655.269531 0)"/>
     </g>
    </g>
   </g>
  </g>
 </g>
 <defs>
  <clipPath id="pd5238f36ab">
   <rect x="7.2" y="55.43625" width="1145.99952" height="665.76327"/>
  </clipPath>
 </defs>
</svg>
